<mxfile host="app.diagrams.net" modified="2024-06-16T17:37:49.362Z" agent="Mozilla/5.0 (Windows NT 10.0; Win64; x64) AppleWebKit/537.36 (KHTML, like Gecko) Chrome/125.0.0.0 Safari/537.36" etag="WFtfzl4MRyOEDitBT3Xx" version="24.5.4" type="google">
  <diagram name="Pagina-1" id="_OKkLW-mLLB-qgmjmGHr">
    <mxGraphModel grid="1" page="1" gridSize="10" guides="1" tooltips="1" connect="1" arrows="1" fold="1" pageScale="1" pageWidth="827" pageHeight="1169" background="none" math="0" shadow="0">
      <root>
        <mxCell id="0" />
        <mxCell id="1" parent="0" />
        <mxCell id="VF1x7tsisbKTvBKclL9h-161" style="edgeStyle=orthogonalEdgeStyle;rounded=0;orthogonalLoop=1;jettySize=auto;html=1;exitX=0;exitY=0.25;exitDx=0;exitDy=0;endArrow=oval;endFill=1;" edge="1" parent="1">
          <mxGeometry relative="1" as="geometry">
            <mxPoint x="1107" y="399.28571428571433" as="targetPoint" />
            <mxPoint x="1137" y="399" as="sourcePoint" />
          </mxGeometry>
        </mxCell>
        <mxCell id="VF1x7tsisbKTvBKclL9h-162" value="Persona" style="rounded=0;whiteSpace=wrap;html=1;" vertex="1" parent="1">
          <mxGeometry x="1137" y="344" width="120" height="60" as="geometry" />
        </mxCell>
        <mxCell id="VF1x7tsisbKTvBKclL9h-163" style="edgeStyle=orthogonalEdgeStyle;rounded=0;orthogonalLoop=1;jettySize=auto;html=1;exitX=0.25;exitY=0;exitDx=0;exitDy=0;endArrow=oval;endFill=0;" edge="1" parent="1" source="VF1x7tsisbKTvBKclL9h-166">
          <mxGeometry relative="1" as="geometry">
            <mxPoint x="607.1034482758621" y="441" as="targetPoint" />
          </mxGeometry>
        </mxCell>
        <mxCell id="VF1x7tsisbKTvBKclL9h-164" style="edgeStyle=orthogonalEdgeStyle;rounded=0;orthogonalLoop=1;jettySize=auto;html=1;endArrow=none;endFill=0;" edge="1" parent="1" source="VF1x7tsisbKTvBKclL9h-166">
          <mxGeometry relative="1" as="geometry">
            <mxPoint x="1197" y="440" as="targetPoint" />
            <Array as="points">
              <mxPoint x="637" y="440" />
            </Array>
          </mxGeometry>
        </mxCell>
        <mxCell id="VF1x7tsisbKTvBKclL9h-165" style="edgeStyle=orthogonalEdgeStyle;rounded=0;orthogonalLoop=1;jettySize=auto;html=1;entryX=0;entryY=0.5;entryDx=0;entryDy=0;endArrow=none;endFill=0;" edge="1" parent="1" source="VF1x7tsisbKTvBKclL9h-166" target="VF1x7tsisbKTvBKclL9h-233">
          <mxGeometry relative="1" as="geometry" />
        </mxCell>
        <mxCell id="VF1x7tsisbKTvBKclL9h-166" value="Personale" style="rounded=0;whiteSpace=wrap;html=1;" vertex="1" parent="1">
          <mxGeometry x="577" y="463" width="120" height="60" as="geometry" />
        </mxCell>
        <mxCell id="VF1x7tsisbKTvBKclL9h-167" style="edgeStyle=orthogonalEdgeStyle;rounded=0;orthogonalLoop=1;jettySize=auto;html=1;endArrow=none;endFill=0;" edge="1" parent="1" source="VF1x7tsisbKTvBKclL9h-168">
          <mxGeometry relative="1" as="geometry">
            <mxPoint x="1196.9999999999998" y="440" as="targetPoint" />
            <Array as="points">
              <mxPoint x="1767" y="440" />
            </Array>
          </mxGeometry>
        </mxCell>
        <mxCell id="VF1x7tsisbKTvBKclL9h-168" value="Paziente" style="whiteSpace=wrap;html=1;rounded=0;" vertex="1" parent="1">
          <mxGeometry x="1707" y="572" width="120" height="60" as="geometry" />
        </mxCell>
        <mxCell id="VF1x7tsisbKTvBKclL9h-169" style="edgeStyle=orthogonalEdgeStyle;rounded=0;orthogonalLoop=1;jettySize=auto;html=1;endArrow=none;endFill=0;" edge="1" parent="1">
          <mxGeometry relative="1" as="geometry">
            <mxPoint x="640" y="563" as="targetPoint" />
            <Array as="points">
              <mxPoint x="467" y="563" />
            </Array>
            <mxPoint x="467" y="615" as="sourcePoint" />
          </mxGeometry>
        </mxCell>
        <mxCell id="VF1x7tsisbKTvBKclL9h-170" value="&lt;div&gt;PersonaleAmministrativo&lt;/div&gt;" style="whiteSpace=wrap;html=1;rounded=0;" vertex="1" parent="1">
          <mxGeometry x="742" y="610" width="137" height="60" as="geometry" />
        </mxCell>
        <mxCell id="VF1x7tsisbKTvBKclL9h-171" value="" style="edgeStyle=orthogonalEdgeStyle;rounded=0;orthogonalLoop=1;jettySize=auto;html=1;endArrow=none;endFill=0;exitX=0;exitY=0.5;exitDx=0;exitDy=0;entryX=0;entryY=0.5;entryDx=0;entryDy=0;" edge="1" parent="1" target="VF1x7tsisbKTvBKclL9h-236">
          <mxGeometry relative="1" as="geometry">
            <Array as="points">
              <mxPoint x="110" y="640" />
              <mxPoint x="110" y="1480" />
              <mxPoint x="715" y="1480" />
            </Array>
          </mxGeometry>
        </mxCell>
        <mxCell id="VF1x7tsisbKTvBKclL9h-172" style="edgeStyle=orthogonalEdgeStyle;rounded=0;orthogonalLoop=1;jettySize=auto;html=1;endArrow=none;endFill=0;" edge="1" parent="1">
          <mxGeometry relative="1" as="geometry">
            <mxPoint x="640" y="563" as="targetPoint" />
            <Array as="points">
              <mxPoint x="807" y="563" />
            </Array>
            <mxPoint x="807" y="610" as="sourcePoint" />
          </mxGeometry>
        </mxCell>
        <mxCell id="VF1x7tsisbKTvBKclL9h-173" style="edgeStyle=orthogonalEdgeStyle;rounded=0;orthogonalLoop=1;jettySize=auto;html=1;entryX=0;entryY=0.5;entryDx=0;entryDy=0;endArrow=none;endFill=0;" edge="1" parent="1" source="VF1x7tsisbKTvBKclL9h-174" target="VF1x7tsisbKTvBKclL9h-199">
          <mxGeometry relative="1" as="geometry" />
        </mxCell>
        <mxCell id="VF1x7tsisbKTvBKclL9h-174" value="PersonaleMedico" style="rounded=0;whiteSpace=wrap;html=1;" vertex="1" parent="1">
          <mxGeometry x="594" y="749" width="120" height="60" as="geometry" />
        </mxCell>
        <mxCell id="VF1x7tsisbKTvBKclL9h-175" value="" style="edgeStyle=orthogonalEdgeStyle;rounded=0;orthogonalLoop=1;jettySize=auto;html=1;endArrow=none;endFill=0;" edge="1" parent="1" source="VF1x7tsisbKTvBKclL9h-178" target="VF1x7tsisbKTvBKclL9h-191">
          <mxGeometry relative="1" as="geometry">
            <Array as="points">
              <mxPoint x="514" y="1133" />
            </Array>
          </mxGeometry>
        </mxCell>
        <mxCell id="VF1x7tsisbKTvBKclL9h-176" style="edgeStyle=orthogonalEdgeStyle;rounded=0;orthogonalLoop=1;jettySize=auto;html=1;exitX=1;exitY=0.75;exitDx=0;exitDy=0;endArrow=oval;endFill=0;" edge="1" parent="1" source="VF1x7tsisbKTvBKclL9h-178">
          <mxGeometry relative="1" as="geometry">
            <mxPoint x="597" y="1008" as="targetPoint" />
          </mxGeometry>
        </mxCell>
        <mxCell id="VF1x7tsisbKTvBKclL9h-177" style="edgeStyle=orthogonalEdgeStyle;rounded=0;orthogonalLoop=1;jettySize=auto;html=1;endArrow=none;endFill=0;exitX=0.5;exitY=0;exitDx=0;exitDy=0;" edge="1" parent="1" source="VF1x7tsisbKTvBKclL9h-178">
          <mxGeometry relative="1" as="geometry">
            <mxPoint x="657" y="845" as="targetPoint" />
            <Array as="points">
              <mxPoint x="514" y="845" />
            </Array>
            <mxPoint x="514.047619047619" y="961" as="sourcePoint" />
          </mxGeometry>
        </mxCell>
        <mxCell id="bLDtoBEc3DzZddHmxZoM-23" style="edgeStyle=orthogonalEdgeStyle;rounded=0;orthogonalLoop=1;jettySize=auto;html=1;exitX=0.25;exitY=1;exitDx=0;exitDy=0;entryX=0.5;entryY=0;entryDx=0;entryDy=0;endArrow=none;endFill=0;" edge="1" parent="1" source="VF1x7tsisbKTvBKclL9h-178" target="jpDQZfpoQcpybGEbhF7t-18">
          <mxGeometry relative="1" as="geometry">
            <Array as="points">
              <mxPoint x="485" y="1023" />
            </Array>
          </mxGeometry>
        </mxCell>
        <mxCell id="VF1x7tsisbKTvBKclL9h-178" value="Primario" style="whiteSpace=wrap;html=1;rounded=0;" vertex="1" parent="1">
          <mxGeometry x="454" y="963" width="120" height="60" as="geometry" />
        </mxCell>
        <mxCell id="VF1x7tsisbKTvBKclL9h-179" style="edgeStyle=orthogonalEdgeStyle;rounded=0;orthogonalLoop=1;jettySize=auto;html=1;exitX=1;exitY=0.75;exitDx=0;exitDy=0;endArrow=oval;endFill=0;" edge="1" parent="1" source="VF1x7tsisbKTvBKclL9h-181">
          <mxGeometry relative="1" as="geometry">
            <mxPoint x="887" y="1008" as="targetPoint" />
          </mxGeometry>
        </mxCell>
        <mxCell id="VF1x7tsisbKTvBKclL9h-180" style="edgeStyle=orthogonalEdgeStyle;rounded=0;orthogonalLoop=1;jettySize=auto;html=1;endArrow=none;endFill=0;exitX=0.5;exitY=0;exitDx=0;exitDy=0;" edge="1" parent="1" source="VF1x7tsisbKTvBKclL9h-181">
          <mxGeometry relative="1" as="geometry">
            <mxPoint x="647" y="845" as="targetPoint" />
            <Array as="points">
              <mxPoint x="804" y="845" />
            </Array>
            <mxPoint x="804.047619047619" y="961" as="sourcePoint" />
          </mxGeometry>
        </mxCell>
        <mxCell id="jpDQZfpoQcpybGEbhF7t-20" style="edgeStyle=orthogonalEdgeStyle;rounded=0;orthogonalLoop=1;jettySize=auto;html=1;endArrow=none;endFill=0;" edge="1" parent="1" source="VF1x7tsisbKTvBKclL9h-181" target="jpDQZfpoQcpybGEbhF7t-19">
          <mxGeometry relative="1" as="geometry" />
        </mxCell>
        <mxCell id="VF1x7tsisbKTvBKclL9h-181" value="VicePrimario" style="whiteSpace=wrap;html=1;rounded=0;" vertex="1" parent="1">
          <mxGeometry x="744" y="963" width="120" height="60" as="geometry" />
        </mxCell>
        <mxCell id="VF1x7tsisbKTvBKclL9h-182" value="" style="edgeStyle=orthogonalEdgeStyle;rounded=0;orthogonalLoop=1;jettySize=auto;html=1;endArrow=none;endFill=0;" edge="1" parent="1" source="VF1x7tsisbKTvBKclL9h-184" target="VF1x7tsisbKTvBKclL9h-193">
          <mxGeometry relative="1" as="geometry" />
        </mxCell>
        <mxCell id="VF1x7tsisbKTvBKclL9h-183" style="edgeStyle=orthogonalEdgeStyle;rounded=0;orthogonalLoop=1;jettySize=auto;html=1;endArrow=none;endFill=0;exitX=0.5;exitY=0;exitDx=0;exitDy=0;" edge="1" parent="1" source="VF1x7tsisbKTvBKclL9h-184">
          <mxGeometry relative="1" as="geometry">
            <mxPoint x="1770" y="668" as="targetPoint" />
            <Array as="points">
              <mxPoint x="1570" y="668" />
            </Array>
            <mxPoint x="1587.0000000000005" y="730" as="sourcePoint" />
          </mxGeometry>
        </mxCell>
        <mxCell id="VF1x7tsisbKTvBKclL9h-184" value="&lt;div&gt;PazienteVisita&lt;/div&gt;" style="whiteSpace=wrap;html=1;rounded=0;" vertex="1" parent="1">
          <mxGeometry x="1510" y="732" width="120" height="60" as="geometry" />
        </mxCell>
        <mxCell id="VF1x7tsisbKTvBKclL9h-186" style="edgeStyle=orthogonalEdgeStyle;rounded=0;orthogonalLoop=1;jettySize=auto;html=1;exitX=0;exitY=0.25;exitDx=0;exitDy=0;endArrow=oval;endFill=0;entryX=0.993;entryY=0.567;entryDx=0;entryDy=0;entryPerimeter=0;" edge="1" parent="1" source="VF1x7tsisbKTvBKclL9h-189" target="VF1x7tsisbKTvBKclL9h-251">
          <mxGeometry relative="1" as="geometry">
            <mxPoint x="1747" y="744.7857142857143" as="targetPoint" />
            <mxPoint x="1717" y="744.5" as="sourcePoint" />
          </mxGeometry>
        </mxCell>
        <mxCell id="VF1x7tsisbKTvBKclL9h-188" style="edgeStyle=orthogonalEdgeStyle;rounded=0;orthogonalLoop=1;jettySize=auto;html=1;endArrow=none;endFill=0;exitX=0.5;exitY=0;exitDx=0;exitDy=0;" edge="1" parent="1" source="VF1x7tsisbKTvBKclL9h-189">
          <mxGeometry relative="1" as="geometry">
            <mxPoint x="1750" y="668" as="targetPoint" />
            <Array as="points">
              <mxPoint x="1947" y="668" />
            </Array>
            <mxPoint x="1947.0000000000005" y="730" as="sourcePoint" />
          </mxGeometry>
        </mxCell>
        <mxCell id="bLDtoBEc3DzZddHmxZoM-10" style="edgeStyle=orthogonalEdgeStyle;rounded=0;orthogonalLoop=1;jettySize=auto;html=1;exitX=0.75;exitY=0;exitDx=0;exitDy=0;entryX=0;entryY=0.5;entryDx=0;entryDy=0;endArrow=none;endFill=0;" edge="1" parent="1" source="VF1x7tsisbKTvBKclL9h-189">
          <mxGeometry relative="1" as="geometry">
            <mxPoint x="1977" y="730" as="sourcePoint" />
            <mxPoint x="2919.9999999999995" y="667" as="targetPoint" />
            <Array as="points">
              <mxPoint x="1977" y="750" />
              <mxPoint x="2070" y="750" />
              <mxPoint x="2070" y="668" />
              <mxPoint x="2920" y="668" />
            </Array>
          </mxGeometry>
        </mxCell>
        <mxCell id="VF1x7tsisbKTvBKclL9h-189" value="PazienteRicoverato" style="whiteSpace=wrap;html=1;rounded=0;" vertex="1" parent="1">
          <mxGeometry x="1887" y="732" width="120" height="60" as="geometry" />
        </mxCell>
        <mxCell id="VF1x7tsisbKTvBKclL9h-190" style="edgeStyle=orthogonalEdgeStyle;rounded=0;orthogonalLoop=1;jettySize=auto;html=1;endArrow=none;endFill=0;" edge="1" parent="1" source="VF1x7tsisbKTvBKclL9h-191" target="VF1x7tsisbKTvBKclL9h-181">
          <mxGeometry relative="1" as="geometry" />
        </mxCell>
        <mxCell id="VF1x7tsisbKTvBKclL9h-191" value="sostituisce" style="rhombus;whiteSpace=wrap;html=1;rounded=0;" vertex="1" parent="1">
          <mxGeometry x="624" y="1094" width="80" height="80" as="geometry" />
        </mxCell>
        <mxCell id="Je9omFcnxlTW0ohOOAAQ-1" style="edgeStyle=orthogonalEdgeStyle;rounded=0;orthogonalLoop=1;jettySize=auto;html=1;entryX=0.5;entryY=0;entryDx=0;entryDy=0;endArrow=none;endFill=0;" edge="1" parent="1" source="VF1x7tsisbKTvBKclL9h-193" target="VF1x7tsisbKTvBKclL9h-198">
          <mxGeometry relative="1" as="geometry">
            <Array as="points">
              <mxPoint x="1570" y="1230" />
              <mxPoint x="1567" y="1230" />
            </Array>
          </mxGeometry>
        </mxCell>
        <mxCell id="bLDtoBEc3DzZddHmxZoM-16" style="edgeStyle=orthogonalEdgeStyle;rounded=0;orthogonalLoop=1;jettySize=auto;html=1;exitX=1;exitY=0.5;exitDx=0;exitDy=0;endArrow=oval;endFill=0;" edge="1" parent="1" source="VF1x7tsisbKTvBKclL9h-193">
          <mxGeometry relative="1" as="geometry">
            <mxPoint x="1650" y="892.181818181818" as="targetPoint" />
          </mxGeometry>
        </mxCell>
        <mxCell id="bLDtoBEc3DzZddHmxZoM-19" style="edgeStyle=orthogonalEdgeStyle;rounded=0;orthogonalLoop=1;jettySize=auto;html=1;exitX=1;exitY=1;exitDx=0;exitDy=0;endArrow=oval;endFill=0;" edge="1" parent="1" source="VF1x7tsisbKTvBKclL9h-193">
          <mxGeometry relative="1" as="geometry">
            <mxPoint x="1650.0000000000002" y="911.8695652173915" as="targetPoint" />
          </mxGeometry>
        </mxCell>
        <mxCell id="u38QQ2XhlgdJdXgunirn-5" style="edgeStyle=orthogonalEdgeStyle;rounded=0;orthogonalLoop=1;jettySize=auto;html=1;exitX=0;exitY=0.5;exitDx=0;exitDy=0;endArrow=oval;endFill=0;" edge="1" parent="1" source="VF1x7tsisbKTvBKclL9h-193">
          <mxGeometry relative="1" as="geometry">
            <mxPoint x="1500" y="892" as="targetPoint" />
          </mxGeometry>
        </mxCell>
        <mxCell id="VF1x7tsisbKTvBKclL9h-193" value="prenotazione" style="rhombus;whiteSpace=wrap;html=1;rounded=0;" vertex="1" parent="1">
          <mxGeometry x="1530" y="852" width="80" height="80" as="geometry" />
        </mxCell>
        <mxCell id="VF1x7tsisbKTvBKclL9h-194" value="" style="edgeStyle=orthogonalEdgeStyle;rounded=0;orthogonalLoop=1;jettySize=auto;html=1;endArrow=none;endFill=0;exitX=0.25;exitY=0;exitDx=0;exitDy=0;" edge="1" parent="1" source="Je9omFcnxlTW0ohOOAAQ-2" target="VF1x7tsisbKTvBKclL9h-199">
          <mxGeometry relative="1" as="geometry">
            <mxPoint x="1370" y="1320" as="sourcePoint" />
            <Array as="points">
              <mxPoint x="1380" y="1380" />
              <mxPoint x="1380" y="1210" />
              <mxPoint x="1209" y="1210" />
            </Array>
          </mxGeometry>
        </mxCell>
        <mxCell id="VF1x7tsisbKTvBKclL9h-195" style="edgeStyle=orthogonalEdgeStyle;rounded=0;orthogonalLoop=1;jettySize=auto;html=1;exitX=0.75;exitY=0;exitDx=0;exitDy=0;endArrow=oval;endFill=0;" edge="1" parent="1" source="VF1x7tsisbKTvBKclL9h-198">
          <mxGeometry relative="1" as="geometry">
            <mxPoint x="1597" y="1196" as="targetPoint" />
          </mxGeometry>
        </mxCell>
        <mxCell id="Je9omFcnxlTW0ohOOAAQ-5" style="edgeStyle=orthogonalEdgeStyle;rounded=0;orthogonalLoop=1;jettySize=auto;html=1;endArrow=none;endFill=0;" edge="1" parent="1" source="VF1x7tsisbKTvBKclL9h-198" target="0APcEdzMZ2uMJcyz4A2P-8">
          <mxGeometry relative="1" as="geometry" />
        </mxCell>
        <mxCell id="u38QQ2XhlgdJdXgunirn-1" style="edgeStyle=orthogonalEdgeStyle;rounded=0;orthogonalLoop=1;jettySize=auto;html=1;exitX=1;exitY=0.25;exitDx=0;exitDy=0;endArrow=oval;endFill=0;" edge="1" parent="1" source="VF1x7tsisbKTvBKclL9h-198">
          <mxGeometry relative="1" as="geometry">
            <mxPoint x="1660" y="1235" as="targetPoint" />
          </mxGeometry>
        </mxCell>
        <mxCell id="u38QQ2XhlgdJdXgunirn-3" style="edgeStyle=orthogonalEdgeStyle;rounded=0;orthogonalLoop=1;jettySize=auto;html=1;exitX=1;exitY=0.75;exitDx=0;exitDy=0;endArrow=oval;endFill=0;" edge="1" parent="1" source="VF1x7tsisbKTvBKclL9h-198">
          <mxGeometry relative="1" as="geometry">
            <mxPoint x="1660" y="1265" as="targetPoint" />
          </mxGeometry>
        </mxCell>
        <mxCell id="VF1x7tsisbKTvBKclL9h-198" value="Esame" style="whiteSpace=wrap;html=1;rounded=0;" vertex="1" parent="1">
          <mxGeometry x="1507" y="1220" width="120" height="60" as="geometry" />
        </mxCell>
        <mxCell id="VF1x7tsisbKTvBKclL9h-199" value="prescrive" style="rhombus;whiteSpace=wrap;html=1;rounded=0;" vertex="1" parent="1">
          <mxGeometry x="1017.5" y="739" width="80" height="80" as="geometry" />
        </mxCell>
        <mxCell id="VF1x7tsisbKTvBKclL9h-202" value="" style="edgeStyle=orthogonalEdgeStyle;rounded=0;orthogonalLoop=1;jettySize=auto;html=1;endArrow=none;endFill=0;" edge="1" parent="1" source="VF1x7tsisbKTvBKclL9h-205" target="VF1x7tsisbKTvBKclL9h-208">
          <mxGeometry relative="1" as="geometry">
            <Array as="points">
              <mxPoint x="1940" y="1560" />
              <mxPoint x="1577" y="1560" />
            </Array>
          </mxGeometry>
        </mxCell>
        <mxCell id="VF1x7tsisbKTvBKclL9h-203" value="" style="edgeStyle=orthogonalEdgeStyle;rounded=0;orthogonalLoop=1;jettySize=auto;html=1;endArrow=none;endFill=0;" edge="1" parent="1" source="VF1x7tsisbKTvBKclL9h-205" target="VF1x7tsisbKTvBKclL9h-215">
          <mxGeometry relative="1" as="geometry" />
        </mxCell>
        <mxCell id="Je9omFcnxlTW0ohOOAAQ-17" style="edgeStyle=orthogonalEdgeStyle;rounded=0;orthogonalLoop=1;jettySize=auto;html=1;endArrow=none;endFill=0;" edge="1" parent="1" source="VF1x7tsisbKTvBKclL9h-205" target="Je9omFcnxlTW0ohOOAAQ-16">
          <mxGeometry relative="1" as="geometry">
            <Array as="points">
              <mxPoint x="1960" y="1321" />
              <mxPoint x="1992" y="1321" />
              <mxPoint x="1992" y="1660" />
            </Array>
          </mxGeometry>
        </mxCell>
        <mxCell id="bLDtoBEc3DzZddHmxZoM-8" style="edgeStyle=orthogonalEdgeStyle;rounded=0;orthogonalLoop=1;jettySize=auto;html=1;exitX=0.75;exitY=1;exitDx=0;exitDy=0;entryX=0;entryY=0.5;entryDx=0;entryDy=0;endArrow=none;endFill=0;" edge="1" parent="1" source="VF1x7tsisbKTvBKclL9h-205" target="jpDQZfpoQcpybGEbhF7t-1">
          <mxGeometry relative="1" as="geometry">
            <mxPoint x="1976.6315789473683" y="1210" as="targetPoint" />
            <Array as="points">
              <mxPoint x="2000" y="1072" />
              <mxPoint x="2000" y="1220" />
              <mxPoint x="2339" y="1220" />
            </Array>
          </mxGeometry>
        </mxCell>
        <mxCell id="bLDtoBEc3DzZddHmxZoM-26" style="edgeStyle=orthogonalEdgeStyle;rounded=0;orthogonalLoop=1;jettySize=auto;html=1;exitX=0.5;exitY=0;exitDx=0;exitDy=0;endArrow=oval;endFill=0;" edge="1" parent="1" source="VF1x7tsisbKTvBKclL9h-205" target="bLDtoBEc3DzZddHmxZoM-27">
          <mxGeometry relative="1" as="geometry">
            <mxPoint x="1947.1724137931037" y="940" as="targetPoint" />
          </mxGeometry>
        </mxCell>
        <mxCell id="VF1x7tsisbKTvBKclL9h-205" value="Reparto" style="whiteSpace=wrap;html=1;rounded=0;" vertex="1" parent="1">
          <mxGeometry x="1887" y="1012" width="120" height="60" as="geometry" />
        </mxCell>
        <mxCell id="VF1x7tsisbKTvBKclL9h-206" value="" style="edgeStyle=orthogonalEdgeStyle;rounded=0;orthogonalLoop=1;jettySize=auto;html=1;endArrow=none;endFill=0;" edge="1" parent="1" source="VF1x7tsisbKTvBKclL9h-208" target="VF1x7tsisbKTvBKclL9h-211">
          <mxGeometry relative="1" as="geometry" />
        </mxCell>
        <mxCell id="VF1x7tsisbKTvBKclL9h-207" value="" style="edgeStyle=orthogonalEdgeStyle;rounded=0;orthogonalLoop=1;jettySize=auto;html=1;endArrow=none;endFill=0;exitX=0.5;exitY=1;exitDx=0;exitDy=0;entryX=0.843;entryY=0;entryDx=0;entryDy=0;entryPerimeter=0;" edge="1" parent="1" source="Je9omFcnxlTW0ohOOAAQ-16" target="VF1x7tsisbKTvBKclL9h-213">
          <mxGeometry relative="1" as="geometry">
            <mxPoint x="1929" y="1701" as="sourcePoint" />
            <mxPoint x="1929.25" y="1755" as="targetPoint" />
            <Array as="points">
              <mxPoint x="1928" y="1701" />
            </Array>
          </mxGeometry>
        </mxCell>
        <mxCell id="VF1x7tsisbKTvBKclL9h-208" value="ContieneStanza" style="rhombus;whiteSpace=wrap;html=1;rounded=0;" vertex="1" parent="1">
          <mxGeometry x="1524" y="1594" width="107" height="80" as="geometry" />
        </mxCell>
        <mxCell id="VF1x7tsisbKTvBKclL9h-209" value="" style="edgeStyle=orthogonalEdgeStyle;rounded=0;orthogonalLoop=1;jettySize=auto;html=1;endArrow=none;endFill=0;" edge="1" parent="1" source="VF1x7tsisbKTvBKclL9h-211" target="VF1x7tsisbKTvBKclL9h-226">
          <mxGeometry relative="1" as="geometry">
            <Array as="points">
              <mxPoint x="1584" y="1850" />
              <mxPoint x="1584" y="1850" />
            </Array>
          </mxGeometry>
        </mxCell>
        <mxCell id="VF1x7tsisbKTvBKclL9h-211" value="Stanza" style="whiteSpace=wrap;html=1;rounded=0;" vertex="1" parent="1">
          <mxGeometry x="1517" y="1754" width="120" height="60" as="geometry" />
        </mxCell>
        <mxCell id="VF1x7tsisbKTvBKclL9h-212" style="edgeStyle=orthogonalEdgeStyle;rounded=0;orthogonalLoop=1;jettySize=auto;html=1;exitX=1;exitY=0.25;exitDx=0;exitDy=0;endArrow=oval;endFill=1;" edge="1" parent="1" source="VF1x7tsisbKTvBKclL9h-213">
          <mxGeometry relative="1" as="geometry">
            <mxPoint x="1977" y="1768.923076923077" as="targetPoint" />
          </mxGeometry>
        </mxCell>
        <mxCell id="VF1x7tsisbKTvBKclL9h-213" value="SalaOperatoria" style="whiteSpace=wrap;html=1;rounded=0;" vertex="1" parent="1">
          <mxGeometry x="1827" y="1754" width="120" height="60" as="geometry" />
        </mxCell>
        <mxCell id="VF1x7tsisbKTvBKclL9h-214" value="" style="edgeStyle=orthogonalEdgeStyle;rounded=0;orthogonalLoop=1;jettySize=auto;html=1;endArrow=none;endFill=0;" edge="1" parent="1" source="0APcEdzMZ2uMJcyz4A2P-21" target="VF1x7tsisbKTvBKclL9h-231">
          <mxGeometry relative="1" as="geometry" />
        </mxCell>
        <mxCell id="VF1x7tsisbKTvBKclL9h-215" value="PossessoRep" style="rhombus;whiteSpace=wrap;html=1;rounded=0;" vertex="1" parent="1">
          <mxGeometry x="2130" y="1002" width="90" height="80" as="geometry" />
        </mxCell>
        <mxCell id="VF1x7tsisbKTvBKclL9h-216" style="edgeStyle=orthogonalEdgeStyle;rounded=0;orthogonalLoop=1;jettySize=auto;html=1;entryX=0.5;entryY=0;entryDx=0;entryDy=0;endArrow=none;endFill=0;" edge="1" parent="1" target="VF1x7tsisbKTvBKclL9h-215">
          <mxGeometry relative="1" as="geometry">
            <mxPoint x="2210" y="920" as="sourcePoint" />
            <mxPoint x="2183" y="1002" as="targetPoint" />
            <Array as="points">
              <mxPoint x="2210" y="912" />
              <mxPoint x="2210" y="957" />
              <mxPoint x="2175" y="957" />
            </Array>
          </mxGeometry>
        </mxCell>
        <mxCell id="VF1x7tsisbKTvBKclL9h-217" value="" style="edgeStyle=orthogonalEdgeStyle;rounded=0;orthogonalLoop=1;jettySize=auto;html=1;endArrow=none;endFill=0;" edge="1" parent="1" source="VF1x7tsisbKTvBKclL9h-219" target="VF1x7tsisbKTvBKclL9h-221">
          <mxGeometry relative="1" as="geometry">
            <Array as="points">
              <mxPoint x="2440" y="882" />
              <mxPoint x="2440" y="882" />
            </Array>
          </mxGeometry>
        </mxCell>
        <mxCell id="0APcEdzMZ2uMJcyz4A2P-23" style="edgeStyle=orthogonalEdgeStyle;rounded=0;orthogonalLoop=1;jettySize=auto;html=1;exitX=0.75;exitY=1;exitDx=0;exitDy=0;entryX=0.5;entryY=0;entryDx=0;entryDy=0;endArrow=none;endFill=0;" edge="1" parent="1" source="VF1x7tsisbKTvBKclL9h-219" target="0APcEdzMZ2uMJcyz4A2P-21">
          <mxGeometry relative="1" as="geometry">
            <Array as="points">
              <mxPoint x="2277" y="912" />
              <mxPoint x="2280" y="912" />
              <mxPoint x="2280" y="957" />
              <mxPoint x="2308" y="957" />
            </Array>
          </mxGeometry>
        </mxCell>
        <mxCell id="VF1x7tsisbKTvBKclL9h-219" value="Ospedale" style="rounded=0;whiteSpace=wrap;html=1;" vertex="1" parent="1">
          <mxGeometry x="2187" y="856" width="120" height="60" as="geometry" />
        </mxCell>
        <mxCell id="VF1x7tsisbKTvBKclL9h-220" value="" style="edgeStyle=orthogonalEdgeStyle;rounded=0;orthogonalLoop=1;jettySize=auto;html=1;endArrow=none;endFill=0;entryX=1;entryY=0.25;entryDx=0;entryDy=0;" edge="1" parent="1" source="VF1x7tsisbKTvBKclL9h-221" target="VF1x7tsisbKTvBKclL9h-224">
          <mxGeometry relative="1" as="geometry">
            <mxPoint x="2537" y="882" as="sourcePoint" />
            <mxPoint x="2704" y="1593.03" as="targetPoint" />
            <Array as="points">
              <mxPoint x="2790" y="882" />
              <mxPoint x="2790" y="1930" />
            </Array>
          </mxGeometry>
        </mxCell>
        <mxCell id="VF1x7tsisbKTvBKclL9h-223" style="edgeStyle=orthogonalEdgeStyle;rounded=0;orthogonalLoop=1;jettySize=auto;html=1;endArrow=none;endFill=0;" edge="1" parent="1" source="VF1x7tsisbKTvBKclL9h-224">
          <mxGeometry relative="1" as="geometry">
            <mxPoint x="2280" y="1842" as="targetPoint" />
            <Array as="points">
              <mxPoint x="2570" y="1945" />
              <mxPoint x="2570" y="1842" />
            </Array>
          </mxGeometry>
        </mxCell>
        <mxCell id="jpDQZfpoQcpybGEbhF7t-11" style="edgeStyle=orthogonalEdgeStyle;rounded=0;orthogonalLoop=1;jettySize=auto;html=1;entryX=0.5;entryY=1;entryDx=0;entryDy=0;endArrow=none;endFill=0;" edge="1" parent="1" source="VF1x7tsisbKTvBKclL9h-224" target="jpDQZfpoQcpybGEbhF7t-6">
          <mxGeometry relative="1" as="geometry" />
        </mxCell>
        <mxCell id="VF1x7tsisbKTvBKclL9h-224" value="LaboratorioEsterno" style="whiteSpace=wrap;html=1;rounded=0;" vertex="1" parent="1">
          <mxGeometry x="2600" y="1915.03" width="120" height="60" as="geometry" />
        </mxCell>
        <mxCell id="VF1x7tsisbKTvBKclL9h-225" value="" style="edgeStyle=orthogonalEdgeStyle;rounded=0;orthogonalLoop=1;jettySize=auto;html=1;endArrow=none;endFill=0;" edge="1" parent="1" source="VF1x7tsisbKTvBKclL9h-226" target="VF1x7tsisbKTvBKclL9h-229">
          <mxGeometry relative="1" as="geometry">
            <Array as="points">
              <mxPoint x="1720" y="1945" />
              <mxPoint x="1720" y="1945" />
            </Array>
          </mxGeometry>
        </mxCell>
        <mxCell id="VF1x7tsisbKTvBKclL9h-226" value="ContieneLab" style="rhombus;whiteSpace=wrap;html=1;rounded=0;" vertex="1" parent="1">
          <mxGeometry x="1537" y="1905.03" width="93" height="80" as="geometry" />
        </mxCell>
        <mxCell id="VF1x7tsisbKTvBKclL9h-229" value="LaboratorioInterno" style="whiteSpace=wrap;html=1;rounded=0;" vertex="1" parent="1">
          <mxGeometry x="2019" y="1915.03" width="120" height="60" as="geometry" />
        </mxCell>
        <mxCell id="ov3w4L62J1m3r_jPTq5H-1" style="edgeStyle=orthogonalEdgeStyle;rounded=0;orthogonalLoop=1;jettySize=auto;html=1;endArrow=none;endFill=0;" edge="1" parent="1" source="VF1x7tsisbKTvBKclL9h-229">
          <mxGeometry relative="1" as="geometry">
            <mxPoint x="2340" y="1842" as="targetPoint" />
            <Array as="points">
              <mxPoint x="2079" y="1842" />
              <mxPoint x="2270" y="1842" />
            </Array>
          </mxGeometry>
        </mxCell>
        <mxCell id="VF1x7tsisbKTvBKclL9h-231" value="ProntoSoccorso" style="whiteSpace=wrap;html=1;rounded=0;" vertex="1" parent="1">
          <mxGeometry x="2427" y="1012" width="120" height="60" as="geometry" />
        </mxCell>
        <mxCell id="VF1x7tsisbKTvBKclL9h-232" style="edgeStyle=orthogonalEdgeStyle;rounded=0;orthogonalLoop=1;jettySize=auto;html=1;entryX=0;entryY=0.5;entryDx=0;entryDy=0;endArrow=none;endFill=0;" edge="1" parent="1" source="VF1x7tsisbKTvBKclL9h-233" target="VF1x7tsisbKTvBKclL9h-205">
          <mxGeometry relative="1" as="geometry">
            <Array as="points">
              <mxPoint x="1339" y="1042" />
            </Array>
          </mxGeometry>
        </mxCell>
        <mxCell id="VF1x7tsisbKTvBKclL9h-233" value="LavoraReparto" style="rhombus;whiteSpace=wrap;html=1;rounded=0;" vertex="1" parent="1">
          <mxGeometry x="1289" y="560" width="101" height="80" as="geometry" />
        </mxCell>
        <mxCell id="VF1x7tsisbKTvBKclL9h-234" style="edgeStyle=orthogonalEdgeStyle;rounded=0;orthogonalLoop=1;jettySize=auto;html=1;entryX=1;entryY=0.5;entryDx=0;entryDy=0;endArrow=none;endFill=0;" edge="1" parent="1" source="rGvSgoze7hu8C_7yOZYc-1" target="VF1x7tsisbKTvBKclL9h-231">
          <mxGeometry relative="1" as="geometry">
            <Array as="points">
              <mxPoint x="1030" y="1470" />
              <mxPoint x="1030" y="2240" />
              <mxPoint x="3120" y="2240" />
              <mxPoint x="3120" y="1042" />
            </Array>
          </mxGeometry>
        </mxCell>
        <mxCell id="VF1x7tsisbKTvBKclL9h-236" value="Pers_Turno" style="rhombus;whiteSpace=wrap;html=1;rounded=0;" vertex="1" parent="1">
          <mxGeometry x="340" y="1430.5" width="127" height="80" as="geometry" />
        </mxCell>
        <mxCell id="VF1x7tsisbKTvBKclL9h-237" style="edgeStyle=orthogonalEdgeStyle;rounded=0;orthogonalLoop=1;jettySize=auto;html=1;exitX=0.25;exitY=0;exitDx=0;exitDy=0;endArrow=oval;endFill=1;" edge="1" parent="1" source="VF1x7tsisbKTvBKclL9h-238">
          <mxGeometry relative="1" as="geometry">
            <mxPoint x="2247.1034482758623" y="1720" as="targetPoint" />
          </mxGeometry>
        </mxCell>
        <mxCell id="VF1x7tsisbKTvBKclL9h-238" value="Laboratorio" style="whiteSpace=wrap;html=1;rounded=0;" vertex="1" parent="1">
          <mxGeometry x="2217" y="1744" width="120" height="60" as="geometry" />
        </mxCell>
        <mxCell id="VF1x7tsisbKTvBKclL9h-239" value="codiceFiscale" style="text;html=1;align=center;verticalAlign=middle;resizable=0;points=[];autosize=1;strokeColor=none;fillColor=none;" vertex="1" parent="1">
          <mxGeometry x="1009" y="384" width="100" height="30" as="geometry" />
        </mxCell>
        <mxCell id="VF1x7tsisbKTvBKclL9h-244" value="anzianitàServizio" style="text;html=1;align=center;verticalAlign=middle;resizable=0;points=[];autosize=1;strokeColor=none;fillColor=none;" vertex="1" parent="1">
          <mxGeometry x="522" y="414" width="110" height="30" as="geometry" />
        </mxCell>
        <mxCell id="VF1x7tsisbKTvBKclL9h-245" value="specializzazioni&lt;div&gt;(1, N)&lt;/div&gt;" style="text;html=1;align=center;verticalAlign=middle;resizable=0;points=[];autosize=1;strokeColor=none;fillColor=none;" vertex="1" parent="1">
          <mxGeometry x="594" y="988" width="110" height="40" as="geometry" />
        </mxCell>
        <mxCell id="VF1x7tsisbKTvBKclL9h-246" value="dataPromozione" style="text;html=1;align=center;verticalAlign=middle;resizable=0;points=[];autosize=1;strokeColor=none;fillColor=none;" vertex="1" parent="1">
          <mxGeometry x="884" y="993" width="110" height="30" as="geometry" />
        </mxCell>
        <mxCell id="VF1x7tsisbKTvBKclL9h-249" value="dataRicovero" style="text;html=1;align=center;verticalAlign=middle;resizable=0;points=[];autosize=1;strokeColor=none;fillColor=none;" vertex="1" parent="1">
          <mxGeometry x="1857" y="670" width="90" height="30" as="geometry" />
        </mxCell>
        <mxCell id="VF1x7tsisbKTvBKclL9h-251" value="dataDimissione&lt;div&gt;(0,1)&lt;/div&gt;" style="text;html=1;align=center;verticalAlign=middle;resizable=0;points=[];autosize=1;strokeColor=none;fillColor=none;" vertex="1" parent="1">
          <mxGeometry x="1741" y="724.5" width="110" height="40" as="geometry" />
        </mxCell>
        <mxCell id="VF1x7tsisbKTvBKclL9h-255" value="patologie" style="text;html=1;align=center;verticalAlign=middle;resizable=0;points=[];autosize=1;strokeColor=none;fillColor=none;" vertex="1" parent="1">
          <mxGeometry x="1741" y="762" width="70" height="30" as="geometry" />
        </mxCell>
        <mxCell id="VF1x7tsisbKTvBKclL9h-256" style="edgeStyle=orthogonalEdgeStyle;rounded=0;orthogonalLoop=1;jettySize=auto;html=1;exitX=0;exitY=0.75;exitDx=0;exitDy=0;endArrow=oval;endFill=0;entryX=1.018;entryY=0.539;entryDx=0;entryDy=0;entryPerimeter=0;" edge="1" parent="1" source="VF1x7tsisbKTvBKclL9h-189" target="VF1x7tsisbKTvBKclL9h-255">
          <mxGeometry relative="1" as="geometry">
            <mxPoint x="1747" y="780.7857142857143" as="targetPoint" />
            <mxPoint x="1717" y="780.5" as="sourcePoint" />
            <Array as="points">
              <mxPoint x="1815" y="777" />
            </Array>
          </mxGeometry>
        </mxCell>
        <mxCell id="VF1x7tsisbKTvBKclL9h-257" value="codice" style="text;html=1;align=center;verticalAlign=middle;resizable=0;points=[];autosize=1;strokeColor=none;fillColor=none;" vertex="1" parent="1">
          <mxGeometry x="1494" y="1169" width="60" height="30" as="geometry" />
        </mxCell>
        <mxCell id="VF1x7tsisbKTvBKclL9h-258" value="costoPrivato" style="text;html=1;align=center;verticalAlign=middle;resizable=0;points=[];autosize=1;strokeColor=none;fillColor=none;" vertex="1" parent="1">
          <mxGeometry x="1207" y="1410" width="90" height="30" as="geometry" />
        </mxCell>
        <mxCell id="VF1x7tsisbKTvBKclL9h-262" style="edgeStyle=orthogonalEdgeStyle;rounded=0;orthogonalLoop=1;jettySize=auto;html=1;exitX=0.75;exitY=0;exitDx=0;exitDy=0;endArrow=oval;endFill=0;" edge="1" parent="1">
          <mxGeometry relative="1" as="geometry">
            <mxPoint x="1527" y="1196" as="targetPoint" />
            <mxPoint x="1527" y="1220" as="sourcePoint" />
          </mxGeometry>
        </mxCell>
        <mxCell id="VF1x7tsisbKTvBKclL9h-264" value="avvertenze&lt;div&gt;(0,1)&lt;/div&gt;" style="text;html=1;align=center;verticalAlign=middle;resizable=0;points=[];autosize=1;strokeColor=none;fillColor=none;" vertex="1" parent="1">
          <mxGeometry x="1217" y="1375" width="80" height="40" as="geometry" />
        </mxCell>
        <mxCell id="VF1x7tsisbKTvBKclL9h-267" value="nome" style="text;html=1;align=center;verticalAlign=middle;resizable=0;points=[];autosize=1;strokeColor=none;fillColor=none;" vertex="1" parent="1">
          <mxGeometry x="1963" y="952" width="50" height="30" as="geometry" />
        </mxCell>
        <mxCell id="VF1x7tsisbKTvBKclL9h-269" value="telefono" style="text;html=1;align=center;verticalAlign=middle;resizable=0;points=[];autosize=1;strokeColor=none;fillColor=none;" vertex="1" parent="1">
          <mxGeometry x="1876" y="953" width="70" height="30" as="geometry" />
        </mxCell>
        <mxCell id="VF1x7tsisbKTvBKclL9h-271" value="codice" style="text;html=1;align=center;verticalAlign=middle;resizable=0;points=[];autosize=1;strokeColor=none;fillColor=none;" vertex="1" parent="1">
          <mxGeometry x="2179" y="803" width="60" height="30" as="geometry" />
        </mxCell>
        <mxCell id="VF1x7tsisbKTvBKclL9h-272" style="edgeStyle=orthogonalEdgeStyle;rounded=0;orthogonalLoop=1;jettySize=auto;html=1;exitX=0.75;exitY=0;exitDx=0;exitDy=0;endArrow=oval;endFill=1;" edge="1" parent="1">
          <mxGeometry relative="1" as="geometry">
            <mxPoint x="2207" y="832" as="targetPoint" />
            <mxPoint x="2207" y="856" as="sourcePoint" />
          </mxGeometry>
        </mxCell>
        <mxCell id="VF1x7tsisbKTvBKclL9h-273" style="edgeStyle=orthogonalEdgeStyle;rounded=0;orthogonalLoop=1;jettySize=auto;html=1;exitX=0.75;exitY=0;exitDx=0;exitDy=0;endArrow=oval;endFill=0;" edge="1" parent="1">
          <mxGeometry relative="1" as="geometry">
            <mxPoint x="2257" y="833" as="targetPoint" />
            <mxPoint x="2257" y="857" as="sourcePoint" />
          </mxGeometry>
        </mxCell>
        <mxCell id="VF1x7tsisbKTvBKclL9h-274" value="nomeOspedale" style="text;html=1;align=center;verticalAlign=middle;resizable=0;points=[];autosize=1;strokeColor=none;fillColor=none;" vertex="1" parent="1">
          <mxGeometry x="2229" y="803" width="100" height="30" as="geometry" />
        </mxCell>
        <mxCell id="VF1x7tsisbKTvBKclL9h-282" value="&lt;span id=&quot;docs-internal-guid-da0a57be-7fff-c521-daa0-9854f9c16eef&quot;&gt;&lt;span style=&quot;font-size: 11pt; font-family: Arial, sans-serif; background-color: transparent; font-variant-numeric: normal; font-variant-east-asian: normal; font-variant-alternates: normal; font-variant-position: normal; vertical-align: baseline; white-space: pre-wrap;&quot;&gt;numeroStanza&lt;/span&gt;&lt;/span&gt;" style="text;html=1;align=center;verticalAlign=middle;resizable=0;points=[];autosize=1;strokeColor=none;fillColor=none;" vertex="1" parent="1">
          <mxGeometry x="1670" y="1769" width="120" height="30" as="geometry" />
        </mxCell>
        <mxCell id="VF1x7tsisbKTvBKclL9h-283" style="edgeStyle=orthogonalEdgeStyle;rounded=0;orthogonalLoop=1;jettySize=auto;html=1;exitX=1;exitY=0.25;exitDx=0;exitDy=0;endArrow=oval;endFill=1;" edge="1" parent="1">
          <mxGeometry relative="1" as="geometry">
            <mxPoint x="1667" y="1782.2037037037037" as="targetPoint" />
            <mxPoint x="1637" y="1782.5" as="sourcePoint" />
          </mxGeometry>
        </mxCell>
        <mxCell id="VF1x7tsisbKTvBKclL9h-284" value="&lt;span id=&quot;docs-internal-guid-118be889-7fff-7aee-f784-4d9a9d2806f1&quot;&gt;&lt;span style=&quot;font-size: 11pt; font-family: Arial, sans-serif; background-color: transparent; font-variant-numeric: normal; font-variant-east-asian: normal; font-variant-alternates: normal; font-variant-position: normal; vertical-align: baseline; white-space: pre-wrap;&quot;&gt;numeroLettiLiberi&lt;/span&gt;&lt;/span&gt;&lt;div&gt;&lt;span style=&quot;font-family: Arial, sans-serif; font-size: 14.6667px; white-space: pre-wrap;&quot;&gt;(0,1)&lt;/span&gt;&lt;span&gt;&lt;span style=&quot;font-size: 11pt; font-family: Arial, sans-serif; background-color: transparent; font-variant-numeric: normal; font-variant-east-asian: normal; font-variant-alternates: normal; font-variant-position: normal; vertical-align: baseline; white-space: pre-wrap;&quot;&gt;&lt;br&gt;&lt;/span&gt;&lt;/span&gt;&lt;/div&gt;" style="text;html=1;align=center;verticalAlign=middle;resizable=0;points=[];autosize=1;strokeColor=none;fillColor=none;" vertex="1" parent="1">
          <mxGeometry x="1354" y="1783" width="140" height="50" as="geometry" />
        </mxCell>
        <mxCell id="VF1x7tsisbKTvBKclL9h-285" value="&lt;span style=&quot;font-family: Arial, sans-serif; font-size: 14.6667px; white-space: pre-wrap;&quot;&gt;numeroLettiOccupati&lt;/span&gt;&lt;div&gt;&lt;span style=&quot;font-family: Arial, sans-serif; font-size: 14.6667px; white-space: pre-wrap;&quot;&gt;(0,1)&lt;/span&gt;&lt;/div&gt;" style="text;html=1;align=center;verticalAlign=middle;resizable=0;points=[];autosize=1;strokeColor=none;fillColor=none;" vertex="1" parent="1">
          <mxGeometry x="1334" y="1743" width="160" height="50" as="geometry" />
        </mxCell>
        <mxCell id="VF1x7tsisbKTvBKclL9h-286" style="edgeStyle=orthogonalEdgeStyle;rounded=0;orthogonalLoop=1;jettySize=auto;html=1;exitX=0;exitY=0.75;exitDx=0;exitDy=0;endArrow=oval;endFill=0;" edge="1" parent="1">
          <mxGeometry relative="1" as="geometry">
            <mxPoint x="1487" y="1769" as="targetPoint" />
            <mxPoint x="1517" y="1769" as="sourcePoint" />
          </mxGeometry>
        </mxCell>
        <mxCell id="VF1x7tsisbKTvBKclL9h-288" value="codiceLab" style="text;html=1;align=center;verticalAlign=middle;resizable=0;points=[];autosize=1;strokeColor=none;fillColor=none;" vertex="1" parent="1">
          <mxGeometry x="2206" y="1690" width="80" height="30" as="geometry" />
        </mxCell>
        <mxCell id="VF1x7tsisbKTvBKclL9h-295" value="telefono" style="text;html=1;align=center;verticalAlign=middle;resizable=0;points=[];autosize=1;strokeColor=none;fillColor=none;" vertex="1" parent="1">
          <mxGeometry x="2574.5" y="1865.06" width="70" height="30" as="geometry" />
        </mxCell>
        <mxCell id="VF1x7tsisbKTvBKclL9h-296" style="edgeStyle=orthogonalEdgeStyle;rounded=0;orthogonalLoop=1;jettySize=auto;html=1;exitX=0.25;exitY=0;exitDx=0;exitDy=0;endArrow=oval;endFill=0;" edge="1" parent="1">
          <mxGeometry relative="1" as="geometry">
            <mxPoint x="2618.5" y="1891.03" as="targetPoint" />
            <mxPoint x="2638.5" y="1915.03" as="sourcePoint" />
          </mxGeometry>
        </mxCell>
        <mxCell id="VF1x7tsisbKTvBKclL9h-300" value="numeroSalaOperatoria" style="text;html=1;align=center;verticalAlign=middle;resizable=0;points=[];autosize=1;strokeColor=none;fillColor=none;" vertex="1" parent="1">
          <mxGeometry x="1984" y="1755" width="140" height="30" as="geometry" />
        </mxCell>
        <mxCell id="VF1x7tsisbKTvBKclL9h-303" value="" style="shape=flexArrow;endArrow=classic;html=1;rounded=0;fillColor=#000000;gradientColor=none;" edge="1" parent="1">
          <mxGeometry width="50" height="50" relative="1" as="geometry">
            <mxPoint x="1199" y="440" as="sourcePoint" />
            <mxPoint x="1199" y="404" as="targetPoint" />
          </mxGeometry>
        </mxCell>
        <mxCell id="VF1x7tsisbKTvBKclL9h-304" value="&lt;i&gt;totale - sovrapposta&lt;/i&gt;" style="text;html=1;align=center;verticalAlign=middle;resizable=0;points=[];autosize=1;strokeColor=none;fillColor=none;" vertex="1" parent="1">
          <mxGeometry x="1139" y="438" width="130" height="30" as="geometry" />
        </mxCell>
        <mxCell id="VF1x7tsisbKTvBKclL9h-305" value="" style="shape=flexArrow;endArrow=classic;html=1;rounded=0;fillColor=#000000;gradientColor=none;entryX=0.5;entryY=1;entryDx=0;entryDy=0;" edge="1" parent="1" target="VF1x7tsisbKTvBKclL9h-166">
          <mxGeometry width="50" height="50" relative="1" as="geometry">
            <mxPoint x="636.63" y="561.98" as="sourcePoint" />
            <mxPoint x="636.63" y="525.98" as="targetPoint" />
          </mxGeometry>
        </mxCell>
        <mxCell id="VF1x7tsisbKTvBKclL9h-306" value="&lt;i&gt;totale&amp;nbsp;- esclusiva&lt;/i&gt;" style="text;html=1;align=center;verticalAlign=middle;resizable=0;points=[];autosize=1;strokeColor=none;fillColor=none;" vertex="1" parent="1">
          <mxGeometry x="582" y="563" width="110" height="30" as="geometry" />
        </mxCell>
        <mxCell id="VF1x7tsisbKTvBKclL9h-307" value="" style="shape=flexArrow;endArrow=classic;html=1;rounded=0;fillColor=none;gradientColor=none;" edge="1" parent="1">
          <mxGeometry width="50" height="50" relative="1" as="geometry">
            <mxPoint x="653.64" y="845" as="sourcePoint" />
            <mxPoint x="653.64" y="809" as="targetPoint" />
          </mxGeometry>
        </mxCell>
        <mxCell id="VF1x7tsisbKTvBKclL9h-308" value="&lt;i&gt;parziale - esclusiva&lt;/i&gt;" style="text;html=1;align=center;verticalAlign=middle;resizable=0;points=[];autosize=1;strokeColor=none;fillColor=none;" vertex="1" parent="1">
          <mxGeometry x="589" y="845" width="130" height="30" as="geometry" />
        </mxCell>
        <mxCell id="VF1x7tsisbKTvBKclL9h-309" value="" style="shape=flexArrow;endArrow=classic;html=1;rounded=0;fillColor=#000000;gradientColor=none;" edge="1" parent="1">
          <mxGeometry width="50" height="50" relative="1" as="geometry">
            <mxPoint x="1766.47" y="668" as="sourcePoint" />
            <mxPoint x="1766.47" y="632" as="targetPoint" />
          </mxGeometry>
        </mxCell>
        <mxCell id="VF1x7tsisbKTvBKclL9h-310" value="&lt;i&gt;totale - sovrapposta&lt;/i&gt;" style="text;html=1;align=center;verticalAlign=middle;resizable=0;points=[];autosize=1;strokeColor=none;fillColor=none;" vertex="1" parent="1">
          <mxGeometry x="1702" y="670" width="130" height="30" as="geometry" />
        </mxCell>
        <mxCell id="VF1x7tsisbKTvBKclL9h-311" value="" style="shape=flexArrow;endArrow=classic;html=1;rounded=0;fillColor=#000000;gradientColor=none;" edge="1" parent="1">
          <mxGeometry width="50" height="50" relative="1" as="geometry">
            <mxPoint x="2276.58" y="1840" as="sourcePoint" />
            <mxPoint x="2276.58" y="1804" as="targetPoint" />
          </mxGeometry>
        </mxCell>
        <mxCell id="VF1x7tsisbKTvBKclL9h-312" value="&lt;i&gt;totale - esclusiva&lt;/i&gt;" style="text;html=1;align=center;verticalAlign=middle;resizable=0;points=[];autosize=1;strokeColor=none;fillColor=none;" vertex="1" parent="1">
          <mxGeometry x="2222" y="1842" width="110" height="30" as="geometry" />
        </mxCell>
        <mxCell id="VF1x7tsisbKTvBKclL9h-313" style="edgeStyle=orthogonalEdgeStyle;rounded=0;orthogonalLoop=1;jettySize=auto;html=1;exitX=0;exitY=0.75;exitDx=0;exitDy=0;endArrow=oval;endFill=0;" edge="1" parent="1">
          <mxGeometry relative="1" as="geometry">
            <mxPoint x="1487" y="1797.74" as="targetPoint" />
            <mxPoint x="1517" y="1797.74" as="sourcePoint" />
          </mxGeometry>
        </mxCell>
        <mxCell id="VF1x7tsisbKTvBKclL9h-314" value="fineTurno&lt;div&gt;(0,1)&lt;/div&gt;" style="text;html=1;align=center;verticalAlign=middle;whiteSpace=wrap;rounded=0;" vertex="1" parent="1">
          <mxGeometry x="713.5024489795919" y="1566.6399999999999" width="60" height="30" as="geometry" />
        </mxCell>
        <mxCell id="VF1x7tsisbKTvBKclL9h-315" value="inizioTurno" style="text;html=1;align=center;verticalAlign=middle;whiteSpace=wrap;rounded=0;" vertex="1" parent="1">
          <mxGeometry x="775.08" y="1350" width="60" height="30" as="geometry" />
        </mxCell>
        <mxCell id="VF1x7tsisbKTvBKclL9h-316" style="edgeStyle=orthogonalEdgeStyle;rounded=0;orthogonalLoop=1;jettySize=auto;html=1;endArrow=oval;endFill=0;entryX=0.75;entryY=0;entryDx=0;entryDy=0;exitX=0.36;exitY=0.858;exitDx=0;exitDy=0;exitPerimeter=0;" edge="1" parent="1" target="VF1x7tsisbKTvBKclL9h-314">
          <mxGeometry relative="1" as="geometry">
            <mxPoint x="758.1728571428571" y="1418.6399999999999" as="targetPoint" />
            <mxPoint x="759.2200000000003" y="1495.2799999999997" as="sourcePoint" />
            <Array as="points">
              <mxPoint x="759.5" y="1496.6399999999999" />
              <mxPoint x="758.5" y="1496.6399999999999" />
            </Array>
          </mxGeometry>
        </mxCell>
        <mxCell id="VF1x7tsisbKTvBKclL9h-317" value="(0, 1)" style="text;html=1;align=center;verticalAlign=middle;resizable=0;points=[];autosize=1;strokeColor=none;fillColor=none;" vertex="1" parent="1">
          <mxGeometry x="1230" y="570" width="50" height="30" as="geometry" />
        </mxCell>
        <mxCell id="VF1x7tsisbKTvBKclL9h-318" value="(1, N)" style="text;html=1;align=center;verticalAlign=middle;resizable=0;points=[];autosize=1;strokeColor=none;fillColor=none;" vertex="1" parent="1">
          <mxGeometry x="1334" y="649" width="50" height="30" as="geometry" />
        </mxCell>
        <mxCell id="VF1x7tsisbKTvBKclL9h-319" value="(1, N)" style="text;html=1;align=center;verticalAlign=middle;resizable=0;points=[];autosize=1;strokeColor=none;fillColor=none;" vertex="1" parent="1">
          <mxGeometry x="1589" y="812" width="50" height="30" as="geometry" />
        </mxCell>
        <mxCell id="VF1x7tsisbKTvBKclL9h-320" value="(1, 1)" style="text;html=1;align=center;verticalAlign=middle;resizable=0;points=[];autosize=1;strokeColor=none;fillColor=none;" vertex="1" parent="1">
          <mxGeometry x="1587" y="951" width="50" height="30" as="geometry" />
        </mxCell>
        <mxCell id="VF1x7tsisbKTvBKclL9h-321" value="(0, 1)" style="text;html=1;align=center;verticalAlign=middle;resizable=0;points=[];autosize=1;strokeColor=none;fillColor=none;" vertex="1" parent="1">
          <mxGeometry x="290" y="1478.5" width="50" height="30" as="geometry" />
        </mxCell>
        <mxCell id="VF1x7tsisbKTvBKclL9h-322" value="(0, N)" style="text;html=1;align=center;verticalAlign=middle;resizable=0;points=[];autosize=1;strokeColor=none;fillColor=none;" vertex="1" parent="1">
          <mxGeometry x="443.47" y="1478.5" width="50" height="30" as="geometry" />
        </mxCell>
        <mxCell id="VF1x7tsisbKTvBKclL9h-323" value="(0, N)" style="text;html=1;align=center;verticalAlign=middle;resizable=0;points=[];autosize=1;strokeColor=none;fillColor=none;" vertex="1" parent="1">
          <mxGeometry x="714" y="1133" width="50" height="30" as="geometry" />
        </mxCell>
        <mxCell id="VF1x7tsisbKTvBKclL9h-324" value="(0, N)" style="text;html=1;align=center;verticalAlign=middle;resizable=0;points=[];autosize=1;strokeColor=none;fillColor=none;" vertex="1" parent="1">
          <mxGeometry x="567" y="1133" width="50" height="30" as="geometry" />
        </mxCell>
        <mxCell id="VF1x7tsisbKTvBKclL9h-325" value="(1, 1)" style="text;html=1;align=center;verticalAlign=middle;resizable=0;points=[];autosize=1;strokeColor=none;fillColor=none;" vertex="1" parent="1">
          <mxGeometry x="2810" y="632" width="50" height="30" as="geometry" />
        </mxCell>
        <mxCell id="VF1x7tsisbKTvBKclL9h-326" value="(0, N)" style="text;html=1;align=center;verticalAlign=middle;resizable=0;points=[];autosize=1;strokeColor=none;fillColor=none;" vertex="1" parent="1">
          <mxGeometry x="3020" y="680" width="50" height="30" as="geometry" />
        </mxCell>
        <mxCell id="VF1x7tsisbKTvBKclL9h-327" value="(0, N)" style="text;html=1;align=center;verticalAlign=middle;resizable=0;points=[];autosize=1;strokeColor=none;fillColor=none;" vertex="1" parent="1">
          <mxGeometry x="957.5" y="749" width="50" height="30" as="geometry" />
        </mxCell>
        <mxCell id="VF1x7tsisbKTvBKclL9h-328" value="(1, 1)" style="text;html=1;align=center;verticalAlign=middle;resizable=0;points=[];autosize=1;strokeColor=none;fillColor=none;" vertex="1" parent="1">
          <mxGeometry x="1109" y="747" width="50" height="30" as="geometry" />
        </mxCell>
        <mxCell id="VF1x7tsisbKTvBKclL9h-329" value="(0, N)" style="text;html=1;align=center;verticalAlign=middle;resizable=0;points=[];autosize=1;strokeColor=none;fillColor=none;" vertex="1" parent="1">
          <mxGeometry x="2610" y="852" width="50" height="30" as="geometry" />
        </mxCell>
        <mxCell id="VF1x7tsisbKTvBKclL9h-330" value="(0, N)" style="text;html=1;align=center;verticalAlign=middle;resizable=0;points=[];autosize=1;strokeColor=none;fillColor=none;" vertex="1" parent="1">
          <mxGeometry x="2740" y="922" width="50" height="30" as="geometry" />
        </mxCell>
        <mxCell id="0APcEdzMZ2uMJcyz4A2P-12" style="edgeStyle=orthogonalEdgeStyle;rounded=0;orthogonalLoop=1;jettySize=auto;html=1;exitX=1;exitY=0.5;exitDx=0;exitDy=0;endArrow=none;endFill=0;" edge="1" parent="1" source="0APcEdzMZ2uMJcyz4A2P-8" target="VF1x7tsisbKTvBKclL9h-238">
          <mxGeometry relative="1" as="geometry">
            <mxPoint x="2280" y="1579.4705882352941" as="targetPoint" />
          </mxGeometry>
        </mxCell>
        <mxCell id="0APcEdzMZ2uMJcyz4A2P-8" value="svolto" style="shape=rhombus;perimeter=rhombusPerimeter;whiteSpace=wrap;html=1;align=center;" vertex="1" parent="1">
          <mxGeometry x="2037" y="1550" width="120" height="60" as="geometry" />
        </mxCell>
        <mxCell id="VF1x7tsisbKTvBKclL9h-221" value="collaborazione" style="rhombus;whiteSpace=wrap;html=1;rounded=0;" vertex="1" parent="1">
          <mxGeometry x="2662" y="842" width="103" height="80" as="geometry" />
        </mxCell>
        <mxCell id="Je9omFcnxlTW0ohOOAAQ-7" style="edgeStyle=orthogonalEdgeStyle;rounded=0;orthogonalLoop=1;jettySize=auto;html=1;endArrow=none;endFill=0;" edge="1" parent="1" source="Je9omFcnxlTW0ohOOAAQ-2">
          <mxGeometry relative="1" as="geometry">
            <mxPoint x="1570" y="1320" as="targetPoint" />
            <Array as="points">
              <mxPoint x="1401" y="1320" />
            </Array>
          </mxGeometry>
        </mxCell>
        <mxCell id="0APcEdzMZ2uMJcyz4A2P-19" style="edgeStyle=orthogonalEdgeStyle;rounded=0;orthogonalLoop=1;jettySize=auto;html=1;exitX=0;exitY=0.25;exitDx=0;exitDy=0;endArrow=oval;endFill=0;" edge="1" parent="1" source="Je9omFcnxlTW0ohOOAAQ-2">
          <mxGeometry relative="1" as="geometry">
            <mxPoint x="1300" y="1395" as="targetPoint" />
          </mxGeometry>
        </mxCell>
        <mxCell id="Je9omFcnxlTW0ohOOAAQ-8" style="edgeStyle=orthogonalEdgeStyle;rounded=0;orthogonalLoop=1;jettySize=auto;html=1;endArrow=none;endFill=0;" edge="1" parent="1" source="Je9omFcnxlTW0ohOOAAQ-4">
          <mxGeometry relative="1" as="geometry">
            <mxPoint x="1570" y="1320" as="targetPoint" />
            <Array as="points">
              <mxPoint x="1737" y="1320" />
            </Array>
          </mxGeometry>
        </mxCell>
        <mxCell id="0APcEdzMZ2uMJcyz4A2P-16" value="" style="shape=flexArrow;endArrow=classic;html=1;rounded=0;fillColor=#000000;gradientColor=none;entryX=0.5;entryY=1;entryDx=0;entryDy=0;" edge="1" parent="1">
          <mxGeometry width="50" height="50" relative="1" as="geometry">
            <mxPoint x="1567" y="1318.98" as="sourcePoint" />
            <mxPoint x="1567.3700000000001" y="1280" as="targetPoint" />
          </mxGeometry>
        </mxCell>
        <mxCell id="Je9omFcnxlTW0ohOOAAQ-4" value="EsameNonSpecialistico" style="rounded=0;whiteSpace=wrap;html=1;" vertex="1" parent="1">
          <mxGeometry x="1660" y="1380" width="153" height="60" as="geometry" />
        </mxCell>
        <mxCell id="Je9omFcnxlTW0ohOOAAQ-9" value="&lt;i&gt;totale&amp;nbsp;- esclusiva&lt;/i&gt;" style="text;html=1;align=center;verticalAlign=middle;resizable=0;points=[];autosize=1;strokeColor=none;fillColor=none;" vertex="1" parent="1">
          <mxGeometry x="1512" y="1320" width="110" height="30" as="geometry" />
        </mxCell>
        <mxCell id="0APcEdzMZ2uMJcyz4A2P-20" style="edgeStyle=orthogonalEdgeStyle;rounded=0;orthogonalLoop=1;jettySize=auto;html=1;exitX=0;exitY=0.75;exitDx=0;exitDy=0;endArrow=oval;endFill=0;" edge="1" parent="1" source="Je9omFcnxlTW0ohOOAAQ-2" target="VF1x7tsisbKTvBKclL9h-258">
          <mxGeometry relative="1" as="geometry" />
        </mxCell>
        <mxCell id="Je9omFcnxlTW0ohOOAAQ-2" value="EsameSpecialistico" style="rounded=0;whiteSpace=wrap;html=1;" vertex="1" parent="1">
          <mxGeometry x="1324" y="1380" width="153" height="60" as="geometry" />
        </mxCell>
        <mxCell id="0APcEdzMZ2uMJcyz4A2P-21" value="PossessoPS" style="rhombus;whiteSpace=wrap;html=1;rounded=0;" vertex="1" parent="1">
          <mxGeometry x="2260" y="1002" width="96" height="80" as="geometry" />
        </mxCell>
        <mxCell id="Je9omFcnxlTW0ohOOAAQ-10" value="(1, N)" style="text;html=1;align=center;verticalAlign=middle;resizable=0;points=[];autosize=1;strokeColor=none;fillColor=none;" vertex="1" parent="1">
          <mxGeometry x="2124" y="952" width="50" height="30" as="geometry" />
        </mxCell>
        <mxCell id="Je9omFcnxlTW0ohOOAAQ-11" value="(1, 1)" style="text;html=1;align=center;verticalAlign=middle;resizable=0;points=[];autosize=1;strokeColor=none;fillColor=none;" vertex="1" parent="1">
          <mxGeometry x="2072" y="1012" width="50" height="30" as="geometry" />
        </mxCell>
        <mxCell id="Je9omFcnxlTW0ohOOAAQ-12" value="(0, 1)" style="text;html=1;align=center;verticalAlign=middle;resizable=0;points=[];autosize=1;strokeColor=none;fillColor=none;" vertex="1" parent="1">
          <mxGeometry x="2306" y="951" width="50" height="30" as="geometry" />
        </mxCell>
        <mxCell id="Je9omFcnxlTW0ohOOAAQ-13" value="(1, 1)" style="text;html=1;align=center;verticalAlign=middle;resizable=0;points=[];autosize=1;strokeColor=none;fillColor=none;" vertex="1" parent="1">
          <mxGeometry x="2345" y="1012" width="50" height="30" as="geometry" />
        </mxCell>
        <mxCell id="Je9omFcnxlTW0ohOOAAQ-14" value="(1, 1)" style="text;html=1;align=center;verticalAlign=middle;resizable=0;points=[];autosize=1;strokeColor=none;fillColor=none;" vertex="1" parent="1">
          <mxGeometry x="2095" y="1500" width="50" height="30" as="geometry" />
        </mxCell>
        <mxCell id="Je9omFcnxlTW0ohOOAAQ-15" value="(0, 1)" style="text;html=1;align=center;verticalAlign=middle;resizable=0;points=[];autosize=1;strokeColor=none;fillColor=none;" vertex="1" parent="1">
          <mxGeometry x="2177" y="1550" width="50" height="30" as="geometry" />
        </mxCell>
        <mxCell id="Je9omFcnxlTW0ohOOAAQ-16" value="ContieneSalaOp" style="rhombus;whiteSpace=wrap;html=1;rounded=0;" vertex="1" parent="1">
          <mxGeometry x="1870" y="1620" width="117" height="80" as="geometry" />
        </mxCell>
        <mxCell id="Je9omFcnxlTW0ohOOAAQ-18" value="(0, N)" style="text;html=1;align=center;verticalAlign=middle;resizable=0;points=[];autosize=1;strokeColor=none;fillColor=none;" vertex="1" parent="1">
          <mxGeometry x="1580" y="1530" width="50" height="30" as="geometry" />
        </mxCell>
        <mxCell id="Je9omFcnxlTW0ohOOAAQ-19" value="(1, 1)" style="text;html=1;align=center;verticalAlign=middle;resizable=0;points=[];autosize=1;strokeColor=none;fillColor=none;" vertex="1" parent="1">
          <mxGeometry x="1577" y="1700" width="50" height="30" as="geometry" />
        </mxCell>
        <mxCell id="Je9omFcnxlTW0ohOOAAQ-20" value="(0, N)" style="text;html=1;align=center;verticalAlign=middle;resizable=0;points=[];autosize=1;strokeColor=none;fillColor=none;" vertex="1" parent="1">
          <mxGeometry x="1946" y="1580" width="50" height="30" as="geometry" />
        </mxCell>
        <mxCell id="Je9omFcnxlTW0ohOOAAQ-21" value="(1, 1)" style="text;html=1;align=center;verticalAlign=middle;resizable=0;points=[];autosize=1;strokeColor=none;fillColor=none;" vertex="1" parent="1">
          <mxGeometry x="1922" y="1700" width="50" height="30" as="geometry" />
        </mxCell>
        <mxCell id="Je9omFcnxlTW0ohOOAAQ-22" value="(0, 1)" style="text;html=1;align=center;verticalAlign=middle;resizable=0;points=[];autosize=1;strokeColor=none;fillColor=none;" vertex="1" parent="1">
          <mxGeometry x="1581" y="1842" width="50" height="30" as="geometry" />
        </mxCell>
        <mxCell id="Je9omFcnxlTW0ohOOAAQ-23" value="(1, 1)" style="text;html=1;align=center;verticalAlign=middle;resizable=0;points=[];autosize=1;strokeColor=none;fillColor=none;" vertex="1" parent="1">
          <mxGeometry x="1652" y="1915.03" width="50" height="30" as="geometry" />
        </mxCell>
        <mxCell id="G1fAblmT_rqQm2CQT70U-4" value="nome" style="text;html=1;align=center;verticalAlign=middle;resizable=0;points=[];autosize=1;strokeColor=none;fillColor=none;" vertex="1" parent="1">
          <mxGeometry x="934.75" y="280" width="50" height="30" as="geometry" />
        </mxCell>
        <mxCell id="G1fAblmT_rqQm2CQT70U-5" value="dataNascita" style="text;html=1;align=center;verticalAlign=middle;resizable=0;points=[];autosize=1;strokeColor=none;fillColor=none;" vertex="1" parent="1">
          <mxGeometry x="894.75" y="374" width="90" height="30" as="geometry" />
        </mxCell>
        <mxCell id="G1fAblmT_rqQm2CQT70U-7" value="cognome" style="text;html=1;align=center;verticalAlign=middle;resizable=0;points=[];autosize=1;strokeColor=none;fillColor=none;" vertex="1" parent="1">
          <mxGeometry x="872" y="334" width="70" height="30" as="geometry" />
        </mxCell>
        <mxCell id="G1fAblmT_rqQm2CQT70U-9" value="indirizzoResidenza" style="ellipse;whiteSpace=wrap;html=1;" vertex="1" parent="1">
          <mxGeometry x="1330" y="356" width="130" height="28" as="geometry" />
        </mxCell>
        <mxCell id="G1fAblmT_rqQm2CQT70U-10" value="" style="endArrow=none;html=1;rounded=0;entryX=1;entryY=1;entryDx=0;entryDy=0;startArrow=oval;startFill=0;" edge="1" parent="1" target="G1fAblmT_rqQm2CQT70U-9">
          <mxGeometry width="50" height="50" relative="1" as="geometry">
            <mxPoint x="1473" y="396" as="sourcePoint" />
            <mxPoint x="1563" y="346" as="targetPoint" />
          </mxGeometry>
        </mxCell>
        <mxCell id="G1fAblmT_rqQm2CQT70U-11" value="Città" style="text;html=1;align=center;verticalAlign=middle;resizable=0;points=[];autosize=1;strokeColor=none;fillColor=none;" vertex="1" parent="1">
          <mxGeometry x="1474" y="384" width="50" height="30" as="geometry" />
        </mxCell>
        <mxCell id="G1fAblmT_rqQm2CQT70U-12" value="DatiAnagrafici" style="ellipse;whiteSpace=wrap;html=1;" vertex="1" parent="1">
          <mxGeometry x="984.75" y="324" width="130" height="28" as="geometry" />
        </mxCell>
        <mxCell id="G1fAblmT_rqQm2CQT70U-13" value="" style="endArrow=none;html=1;rounded=0;entryX=1;entryY=1;entryDx=0;entryDy=0;exitX=0;exitY=0;exitDx=0;exitDy=0;" edge="1" parent="1" target="G1fAblmT_rqQm2CQT70U-12">
          <mxGeometry width="50" height="50" relative="1" as="geometry">
            <mxPoint x="1135" y="373" as="sourcePoint" />
            <mxPoint x="1335" y="394" as="targetPoint" />
          </mxGeometry>
        </mxCell>
        <mxCell id="G1fAblmT_rqQm2CQT70U-14" value="Via" style="text;html=1;align=center;verticalAlign=middle;resizable=0;points=[];autosize=1;strokeColor=none;fillColor=none;" vertex="1" parent="1">
          <mxGeometry x="1484" y="354" width="40" height="30" as="geometry" />
        </mxCell>
        <mxCell id="G1fAblmT_rqQm2CQT70U-15" value="" style="endArrow=none;html=1;rounded=0;entryX=1;entryY=0.5;entryDx=0;entryDy=0;startArrow=oval;startFill=0;" edge="1" parent="1" target="G1fAblmT_rqQm2CQT70U-9">
          <mxGeometry width="50" height="50" relative="1" as="geometry">
            <mxPoint x="1483" y="370" as="sourcePoint" />
            <mxPoint x="1452" y="390" as="targetPoint" />
          </mxGeometry>
        </mxCell>
        <mxCell id="G1fAblmT_rqQm2CQT70U-16" value="" style="endArrow=none;html=1;rounded=0;entryX=1;entryY=0;entryDx=0;entryDy=0;startArrow=oval;startFill=0;" edge="1" parent="1" target="G1fAblmT_rqQm2CQT70U-9">
          <mxGeometry width="50" height="50" relative="1" as="geometry">
            <mxPoint x="1463" y="346" as="sourcePoint" />
            <mxPoint x="1452" y="390" as="targetPoint" />
          </mxGeometry>
        </mxCell>
        <mxCell id="G1fAblmT_rqQm2CQT70U-17" value="CAP" style="text;html=1;align=center;verticalAlign=middle;resizable=0;points=[];autosize=1;strokeColor=none;fillColor=none;" vertex="1" parent="1">
          <mxGeometry x="1460" y="326" width="50" height="30" as="geometry" />
        </mxCell>
        <mxCell id="G1fAblmT_rqQm2CQT70U-18" value="" style="endArrow=none;html=1;rounded=0;entryX=0.5;entryY=0;entryDx=0;entryDy=0;startArrow=oval;startFill=0;" edge="1" parent="1" target="G1fAblmT_rqQm2CQT70U-9">
          <mxGeometry width="50" height="50" relative="1" as="geometry">
            <mxPoint x="1423" y="336" as="sourcePoint" />
            <mxPoint x="1452" y="390" as="targetPoint" />
          </mxGeometry>
        </mxCell>
        <mxCell id="G1fAblmT_rqQm2CQT70U-19" value="" style="endArrow=oval;html=1;rounded=0;exitX=0;exitY=0.5;exitDx=0;exitDy=0;endFill=0;" edge="1" parent="1" source="G1fAblmT_rqQm2CQT70U-12">
          <mxGeometry width="50" height="50" relative="1" as="geometry">
            <mxPoint x="984.75" y="334" as="sourcePoint" />
            <mxPoint x="945" y="344" as="targetPoint" />
          </mxGeometry>
        </mxCell>
        <mxCell id="G1fAblmT_rqQm2CQT70U-20" value="NumeroCivico" style="text;html=1;align=center;verticalAlign=middle;resizable=0;points=[];autosize=1;strokeColor=none;fillColor=none;" vertex="1" parent="1">
          <mxGeometry x="1370" y="312" width="100" height="30" as="geometry" />
        </mxCell>
        <mxCell id="G1fAblmT_rqQm2CQT70U-21" value="" style="endArrow=oval;html=1;rounded=0;exitX=0;exitY=1;exitDx=0;exitDy=0;endFill=0;" edge="1" parent="1" source="G1fAblmT_rqQm2CQT70U-12">
          <mxGeometry width="50" height="50" relative="1" as="geometry">
            <mxPoint x="992" y="352" as="sourcePoint" />
            <mxPoint x="975" y="374" as="targetPoint" />
          </mxGeometry>
        </mxCell>
        <mxCell id="G1fAblmT_rqQm2CQT70U-22" value="" style="endArrow=oval;html=1;rounded=0;exitX=0;exitY=0;exitDx=0;exitDy=0;endFill=0;" edge="1" parent="1" source="G1fAblmT_rqQm2CQT70U-12">
          <mxGeometry width="50" height="50" relative="1" as="geometry">
            <mxPoint x="992" y="296" as="sourcePoint" />
            <mxPoint x="965" y="304" as="targetPoint" />
          </mxGeometry>
        </mxCell>
        <mxCell id="G1fAblmT_rqQm2CQT70U-23" value="" style="endArrow=none;html=1;rounded=0;entryX=0;entryY=0.5;entryDx=0;entryDy=0;exitX=1;exitY=0.25;exitDx=0;exitDy=0;" edge="1" parent="1" source="VF1x7tsisbKTvBKclL9h-162" target="G1fAblmT_rqQm2CQT70U-9">
          <mxGeometry width="50" height="50" relative="1" as="geometry">
            <mxPoint x="1260" y="360" as="sourcePoint" />
            <mxPoint x="1383" y="386" as="targetPoint" />
          </mxGeometry>
        </mxCell>
        <mxCell id="G1fAblmT_rqQm2CQT70U-30" value="DataEsame" style="text;html=1;align=center;verticalAlign=middle;whiteSpace=wrap;rounded=0;" vertex="1" parent="1">
          <mxGeometry x="1405" y="1199.0022222222221" width="60" height="30" as="geometry" />
        </mxCell>
        <mxCell id="G1fAblmT_rqQm2CQT70U-31" value="OraEsame" style="text;html=1;align=center;verticalAlign=middle;whiteSpace=wrap;rounded=0;" vertex="1" parent="1">
          <mxGeometry x="1405" y="1250" width="60" height="30" as="geometry" />
        </mxCell>
        <mxCell id="G1fAblmT_rqQm2CQT70U-32" value="" style="endArrow=oval;html=1;rounded=0;entryX=1;entryY=1;entryDx=0;entryDy=0;exitX=0;exitY=0.25;exitDx=0;exitDy=0;endFill=0;" edge="1" parent="1" target="G1fAblmT_rqQm2CQT70U-30">
          <mxGeometry width="50" height="50" relative="1" as="geometry">
            <mxPoint x="1507" y="1245" as="sourcePoint" />
            <mxPoint x="1663" y="1171" as="targetPoint" />
          </mxGeometry>
        </mxCell>
        <mxCell id="G1fAblmT_rqQm2CQT70U-33" value="" style="endArrow=oval;html=1;rounded=0;entryX=1;entryY=0.75;entryDx=0;entryDy=0;exitX=0;exitY=0.5;exitDx=0;exitDy=0;endFill=0;" edge="1" parent="1" target="G1fAblmT_rqQm2CQT70U-31">
          <mxGeometry width="50" height="50" relative="1" as="geometry">
            <mxPoint x="1507" y="1260" as="sourcePoint" />
            <mxPoint x="1475" y="1239" as="targetPoint" />
          </mxGeometry>
        </mxCell>
        <mxCell id="G1fAblmT_rqQm2CQT70U-34" value="indirizzo" style="ellipse;whiteSpace=wrap;html=1;" vertex="1" parent="1">
          <mxGeometry x="2330" y="784" width="130" height="28" as="geometry" />
        </mxCell>
        <mxCell id="G1fAblmT_rqQm2CQT70U-35" value="" style="endArrow=none;html=1;rounded=0;entryX=1;entryY=1;entryDx=0;entryDy=0;startArrow=oval;startFill=0;" edge="1" parent="1" target="G1fAblmT_rqQm2CQT70U-34">
          <mxGeometry width="50" height="50" relative="1" as="geometry">
            <mxPoint x="2473" y="824" as="sourcePoint" />
            <mxPoint x="2563" y="774" as="targetPoint" />
          </mxGeometry>
        </mxCell>
        <mxCell id="G1fAblmT_rqQm2CQT70U-36" value="Città" style="text;html=1;align=center;verticalAlign=middle;resizable=0;points=[];autosize=1;strokeColor=none;fillColor=none;" vertex="1" parent="1">
          <mxGeometry x="2474" y="812" width="50" height="30" as="geometry" />
        </mxCell>
        <mxCell id="G1fAblmT_rqQm2CQT70U-37" value="Via" style="text;html=1;align=center;verticalAlign=middle;resizable=0;points=[];autosize=1;strokeColor=none;fillColor=none;" vertex="1" parent="1">
          <mxGeometry x="2484" y="782" width="40" height="30" as="geometry" />
        </mxCell>
        <mxCell id="G1fAblmT_rqQm2CQT70U-38" value="" style="endArrow=none;html=1;rounded=0;entryX=1;entryY=0.5;entryDx=0;entryDy=0;startArrow=oval;startFill=0;" edge="1" parent="1" target="G1fAblmT_rqQm2CQT70U-34">
          <mxGeometry width="50" height="50" relative="1" as="geometry">
            <mxPoint x="2483" y="798" as="sourcePoint" />
            <mxPoint x="2452" y="818" as="targetPoint" />
          </mxGeometry>
        </mxCell>
        <mxCell id="G1fAblmT_rqQm2CQT70U-39" value="" style="endArrow=none;html=1;rounded=0;entryX=1;entryY=0;entryDx=0;entryDy=0;startArrow=oval;startFill=0;" edge="1" parent="1" target="G1fAblmT_rqQm2CQT70U-34">
          <mxGeometry width="50" height="50" relative="1" as="geometry">
            <mxPoint x="2463" y="774" as="sourcePoint" />
            <mxPoint x="2452" y="818" as="targetPoint" />
          </mxGeometry>
        </mxCell>
        <mxCell id="G1fAblmT_rqQm2CQT70U-40" value="CAP" style="text;html=1;align=center;verticalAlign=middle;resizable=0;points=[];autosize=1;strokeColor=none;fillColor=none;" vertex="1" parent="1">
          <mxGeometry x="2460" y="754" width="50" height="30" as="geometry" />
        </mxCell>
        <mxCell id="G1fAblmT_rqQm2CQT70U-41" value="" style="endArrow=none;html=1;rounded=0;entryX=0.5;entryY=0;entryDx=0;entryDy=0;startArrow=oval;startFill=0;" edge="1" parent="1" target="G1fAblmT_rqQm2CQT70U-34">
          <mxGeometry width="50" height="50" relative="1" as="geometry">
            <mxPoint x="2423" y="764" as="sourcePoint" />
            <mxPoint x="2452" y="818" as="targetPoint" />
          </mxGeometry>
        </mxCell>
        <mxCell id="G1fAblmT_rqQm2CQT70U-42" value="NumeroCivico" style="text;html=1;align=center;verticalAlign=middle;resizable=0;points=[];autosize=1;strokeColor=none;fillColor=none;" vertex="1" parent="1">
          <mxGeometry x="2370" y="740" width="100" height="30" as="geometry" />
        </mxCell>
        <mxCell id="G1fAblmT_rqQm2CQT70U-43" value="" style="endArrow=none;html=1;rounded=0;entryX=0;entryY=1;entryDx=0;entryDy=0;exitX=1;exitY=0;exitDx=0;exitDy=0;" edge="1" parent="1" source="VF1x7tsisbKTvBKclL9h-219" target="G1fAblmT_rqQm2CQT70U-34">
          <mxGeometry width="50" height="50" relative="1" as="geometry">
            <mxPoint x="2260" y="788" as="sourcePoint" />
            <mxPoint x="2383" y="814" as="targetPoint" />
          </mxGeometry>
        </mxCell>
        <mxCell id="G1fAblmT_rqQm2CQT70U-44" value="indirizzo" style="ellipse;whiteSpace=wrap;html=1;" vertex="1" parent="1">
          <mxGeometry x="2701" y="2019.03" width="130" height="28" as="geometry" />
        </mxCell>
        <mxCell id="G1fAblmT_rqQm2CQT70U-45" value="" style="endArrow=none;html=1;rounded=0;entryX=1;entryY=1;entryDx=0;entryDy=0;startArrow=oval;startFill=0;" edge="1" parent="1" target="G1fAblmT_rqQm2CQT70U-44">
          <mxGeometry width="50" height="50" relative="1" as="geometry">
            <mxPoint x="2844" y="2059.03" as="sourcePoint" />
            <mxPoint x="2934" y="2009.03" as="targetPoint" />
          </mxGeometry>
        </mxCell>
        <mxCell id="G1fAblmT_rqQm2CQT70U-46" value="Città" style="text;html=1;align=center;verticalAlign=middle;resizable=0;points=[];autosize=1;strokeColor=none;fillColor=none;" vertex="1" parent="1">
          <mxGeometry x="2845" y="2047.03" width="50" height="30" as="geometry" />
        </mxCell>
        <mxCell id="G1fAblmT_rqQm2CQT70U-47" value="Via" style="text;html=1;align=center;verticalAlign=middle;resizable=0;points=[];autosize=1;strokeColor=none;fillColor=none;" vertex="1" parent="1">
          <mxGeometry x="2855" y="2017.03" width="40" height="30" as="geometry" />
        </mxCell>
        <mxCell id="G1fAblmT_rqQm2CQT70U-48" value="" style="endArrow=none;html=1;rounded=0;entryX=1;entryY=0.5;entryDx=0;entryDy=0;startArrow=oval;startFill=0;" edge="1" parent="1" target="G1fAblmT_rqQm2CQT70U-44">
          <mxGeometry width="50" height="50" relative="1" as="geometry">
            <mxPoint x="2854" y="2033.03" as="sourcePoint" />
            <mxPoint x="2823" y="2053.03" as="targetPoint" />
          </mxGeometry>
        </mxCell>
        <mxCell id="G1fAblmT_rqQm2CQT70U-49" value="" style="endArrow=none;html=1;rounded=0;entryX=1;entryY=0;entryDx=0;entryDy=0;startArrow=oval;startFill=0;" edge="1" parent="1" target="G1fAblmT_rqQm2CQT70U-44">
          <mxGeometry width="50" height="50" relative="1" as="geometry">
            <mxPoint x="2834" y="2009.03" as="sourcePoint" />
            <mxPoint x="2823" y="2053.03" as="targetPoint" />
          </mxGeometry>
        </mxCell>
        <mxCell id="G1fAblmT_rqQm2CQT70U-50" value="CAP" style="text;html=1;align=center;verticalAlign=middle;resizable=0;points=[];autosize=1;strokeColor=none;fillColor=none;" vertex="1" parent="1">
          <mxGeometry x="2831" y="1989.03" width="50" height="30" as="geometry" />
        </mxCell>
        <mxCell id="G1fAblmT_rqQm2CQT70U-51" value="" style="endArrow=none;html=1;rounded=0;entryX=0.5;entryY=0;entryDx=0;entryDy=0;startArrow=oval;startFill=0;" edge="1" parent="1" target="G1fAblmT_rqQm2CQT70U-44">
          <mxGeometry width="50" height="50" relative="1" as="geometry">
            <mxPoint x="2794" y="1999.03" as="sourcePoint" />
            <mxPoint x="2823" y="2053.03" as="targetPoint" />
          </mxGeometry>
        </mxCell>
        <mxCell id="G1fAblmT_rqQm2CQT70U-52" value="NumeroCivico" style="text;html=1;align=center;verticalAlign=middle;resizable=0;points=[];autosize=1;strokeColor=none;fillColor=none;" vertex="1" parent="1">
          <mxGeometry x="2741" y="1975.03" width="100" height="30" as="geometry" />
        </mxCell>
        <mxCell id="G1fAblmT_rqQm2CQT70U-53" value="" style="endArrow=none;html=1;rounded=0;entryX=0;entryY=0.5;entryDx=0;entryDy=0;exitX=0.5;exitY=1;exitDx=0;exitDy=0;" edge="1" parent="1" source="VF1x7tsisbKTvBKclL9h-224" target="G1fAblmT_rqQm2CQT70U-44">
          <mxGeometry width="50" height="50" relative="1" as="geometry">
            <mxPoint x="2650" y="2058" as="sourcePoint" />
            <mxPoint x="2773" y="2084" as="targetPoint" />
          </mxGeometry>
        </mxCell>
        <mxCell id="BORmzfKDyo43SeMRjXXM-1" style="edgeStyle=orthogonalEdgeStyle;rounded=0;orthogonalLoop=1;jettySize=auto;html=1;exitX=0.782;exitY=0.717;exitDx=0;exitDy=0;endArrow=oval;endFill=0;exitPerimeter=0;" edge="1" parent="1" source="VF1x7tsisbKTvBKclL9h-191">
          <mxGeometry relative="1" as="geometry">
            <mxPoint x="727" y="1180" as="targetPoint" />
            <Array as="points">
              <mxPoint x="687" y="1170" />
              <mxPoint x="727" y="1170" />
            </Array>
            <mxPoint x="686.5833333333333" y="1157" as="sourcePoint" />
          </mxGeometry>
        </mxCell>
        <mxCell id="BORmzfKDyo43SeMRjXXM-2" style="edgeStyle=orthogonalEdgeStyle;rounded=0;orthogonalLoop=1;jettySize=auto;html=1;exitX=0;exitY=1;exitDx=0;exitDy=0;endArrow=oval;endFill=0;" edge="1" parent="1" target="BORmzfKDyo43SeMRjXXM-3">
          <mxGeometry relative="1" as="geometry">
            <mxPoint x="647.5833333333333" y="1157" as="sourcePoint" />
            <Array as="points">
              <mxPoint x="648" y="1179" />
              <mxPoint x="647" y="1179" />
            </Array>
          </mxGeometry>
        </mxCell>
        <mxCell id="BORmzfKDyo43SeMRjXXM-3" value="inizioSostituzione" style="text;html=1;align=center;verticalAlign=middle;whiteSpace=wrap;rounded=0;" vertex="1" parent="1">
          <mxGeometry x="617" y="1200" width="60" height="30" as="geometry" />
        </mxCell>
        <mxCell id="BORmzfKDyo43SeMRjXXM-4" value="fineSostituzione&lt;div&gt;(0,1)&lt;/div&gt;" style="text;html=1;align=center;verticalAlign=middle;whiteSpace=wrap;rounded=0;" vertex="1" parent="1">
          <mxGeometry x="719" y="1190" width="60" height="30" as="geometry" />
        </mxCell>
        <mxCell id="G1fAblmT_rqQm2CQT70U-58" value="" style="endArrow=none;html=1;rounded=0;endFill=0;startArrow=oval;startFill=1;" edge="1" parent="1">
          <mxGeometry width="50" height="50" relative="1" as="geometry">
            <mxPoint x="1520" y="1730" as="sourcePoint" />
            <mxPoint x="1650" y="1820" as="targetPoint" />
            <Array as="points">
              <mxPoint x="1650" y="1730" />
            </Array>
          </mxGeometry>
        </mxCell>
        <mxCell id="G1fAblmT_rqQm2CQT70U-60" value="" style="endArrow=oval;html=1;rounded=0;endFill=1;exitX=0.812;exitY=0.024;exitDx=0;exitDy=0;exitPerimeter=0;entryX=0.434;entryY=1.033;entryDx=0;entryDy=0;entryPerimeter=0;" edge="1" parent="1" source="VF1x7tsisbKTvBKclL9h-205" target="VF1x7tsisbKTvBKclL9h-267">
          <mxGeometry width="50" height="50" relative="1" as="geometry">
            <mxPoint x="1984" y="1010" as="sourcePoint" />
            <mxPoint x="1984" y="982" as="targetPoint" />
          </mxGeometry>
        </mxCell>
        <mxCell id="G1fAblmT_rqQm2CQT70U-62" value="" style="endArrow=none;html=1;rounded=0;startArrow=oval;startFill=1;endFill=0;" edge="1" parent="1">
          <mxGeometry width="50" height="50" relative="1" as="geometry">
            <mxPoint x="2038" y="1086" as="sourcePoint" />
            <mxPoint x="1958" y="996" as="targetPoint" />
            <Array as="points">
              <mxPoint x="2038" y="996" />
            </Array>
          </mxGeometry>
        </mxCell>
        <mxCell id="BORmzfKDyo43SeMRjXXM-5" value="" style="edgeStyle=segmentEdgeStyle;endArrow=oval;html=1;curved=0;rounded=0;endSize=8;startSize=8;endFill=1;" edge="1" parent="1">
          <mxGeometry width="50" height="50" relative="1" as="geometry">
            <mxPoint x="2403" y="1001" as="sourcePoint" />
            <mxPoint x="2403" y="1083" as="targetPoint" />
          </mxGeometry>
        </mxCell>
        <mxCell id="BORmzfKDyo43SeMRjXXM-6" value="" style="endArrow=none;html=1;rounded=0;endFill=0;startArrow=oval;startFill=1;" edge="1" parent="1">
          <mxGeometry width="50" height="50" relative="1" as="geometry">
            <mxPoint x="1880" y="1740" as="sourcePoint" />
            <mxPoint x="1962" y="1800" as="targetPoint" />
            <Array as="points">
              <mxPoint x="1962" y="1740" />
            </Array>
          </mxGeometry>
        </mxCell>
        <mxCell id="BORmzfKDyo43SeMRjXXM-7" value="&lt;div&gt;Infermiere&lt;/div&gt;" style="whiteSpace=wrap;html=1;rounded=0;" vertex="1" parent="1">
          <mxGeometry x="220" y="740" width="137" height="60" as="geometry" />
        </mxCell>
        <mxCell id="bLDtoBEc3DzZddHmxZoM-38" style="edgeStyle=orthogonalEdgeStyle;rounded=0;orthogonalLoop=1;jettySize=auto;html=1;exitX=0;exitY=0.5;exitDx=0;exitDy=0;entryX=0;entryY=0.5;entryDx=0;entryDy=0;endArrow=none;endFill=0;" edge="1" parent="1" source="BORmzfKDyo43SeMRjXXM-9" target="VF1x7tsisbKTvBKclL9h-236">
          <mxGeometry relative="1" as="geometry">
            <mxPoint x="180" y="1220" as="targetPoint" />
            <Array as="points">
              <mxPoint x="180" y="640" />
              <mxPoint x="180" y="1470" />
            </Array>
          </mxGeometry>
        </mxCell>
        <mxCell id="BORmzfKDyo43SeMRjXXM-9" value="&lt;div&gt;PersonaleSanitario&lt;/div&gt;" style="whiteSpace=wrap;html=1;rounded=0;" vertex="1" parent="1">
          <mxGeometry x="400" y="610" width="137" height="60" as="geometry" />
        </mxCell>
        <mxCell id="BORmzfKDyo43SeMRjXXM-10" style="edgeStyle=orthogonalEdgeStyle;rounded=0;orthogonalLoop=1;jettySize=auto;html=1;endArrow=none;endFill=0;exitX=0.5;exitY=0;exitDx=0;exitDy=0;" edge="1" parent="1" source="BORmzfKDyo43SeMRjXXM-7">
          <mxGeometry relative="1" as="geometry">
            <mxPoint x="471.47" y="710" as="targetPoint" />
            <Array as="points">
              <mxPoint x="290" y="740" />
              <mxPoint x="290" y="710" />
            </Array>
            <mxPoint x="298.47" y="762" as="sourcePoint" />
          </mxGeometry>
        </mxCell>
        <mxCell id="BORmzfKDyo43SeMRjXXM-11" style="edgeStyle=orthogonalEdgeStyle;rounded=0;orthogonalLoop=1;jettySize=auto;html=1;endArrow=none;endFill=0;exitX=0.375;exitY=0.017;exitDx=0;exitDy=0;exitPerimeter=0;" edge="1" parent="1" source="VF1x7tsisbKTvBKclL9h-174">
          <mxGeometry relative="1" as="geometry">
            <mxPoint x="471.47" y="710" as="targetPoint" />
            <Array as="points">
              <mxPoint x="639" y="710" />
            </Array>
            <mxPoint x="639" y="720" as="sourcePoint" />
          </mxGeometry>
        </mxCell>
        <mxCell id="BORmzfKDyo43SeMRjXXM-12" value="" style="shape=flexArrow;endArrow=classic;html=1;rounded=0;fillColor=#000000;gradientColor=none;entryX=0.5;entryY=1;entryDx=0;entryDy=0;" edge="1" parent="1">
          <mxGeometry width="50" height="50" relative="1" as="geometry">
            <mxPoint x="468.1" y="708.98" as="sourcePoint" />
            <mxPoint x="468.47" y="670" as="targetPoint" />
          </mxGeometry>
        </mxCell>
        <mxCell id="BORmzfKDyo43SeMRjXXM-13" value="&lt;i&gt;totale&amp;nbsp;- esclusiva&lt;/i&gt;" style="text;html=1;align=center;verticalAlign=middle;resizable=0;points=[];autosize=1;strokeColor=none;fillColor=none;" vertex="1" parent="1">
          <mxGeometry x="413.47" y="710" width="110" height="30" as="geometry" />
        </mxCell>
        <mxCell id="bLDtoBEc3DzZddHmxZoM-5" value="GiornoSettimana" style="rounded=0;whiteSpace=wrap;html=1;" vertex="1" parent="1">
          <mxGeometry x="2427" y="1380" width="120" height="60" as="geometry" />
        </mxCell>
        <mxCell id="jpDQZfpoQcpybGEbhF7t-13" style="edgeStyle=orthogonalEdgeStyle;rounded=0;orthogonalLoop=1;jettySize=auto;html=1;entryX=0.5;entryY=0;entryDx=0;entryDy=0;endArrow=none;endFill=0;" edge="1" parent="1" source="jpDQZfpoQcpybGEbhF7t-1" target="bLDtoBEc3DzZddHmxZoM-5">
          <mxGeometry relative="1" as="geometry" />
        </mxCell>
        <mxCell id="jpDQZfpoQcpybGEbhF7t-1" value="OrarioVisita" style="rhombus;whiteSpace=wrap;html=1;" vertex="1" parent="1">
          <mxGeometry x="2338.5" y="1212" width="80" height="80" as="geometry" />
        </mxCell>
        <mxCell id="jpDQZfpoQcpybGEbhF7t-2" value="oraInizioVisita" style="text;html=1;align=center;verticalAlign=middle;resizable=0;points=[];autosize=1;strokeColor=none;fillColor=none;" vertex="1" parent="1">
          <mxGeometry x="2273" y="1190" width="100" height="30" as="geometry" />
        </mxCell>
        <mxCell id="jpDQZfpoQcpybGEbhF7t-3" style="edgeStyle=orthogonalEdgeStyle;rounded=0;orthogonalLoop=1;jettySize=auto;html=1;exitX=0.75;exitY=0;exitDx=0;exitDy=0;endArrow=oval;endFill=0;" edge="1" parent="1">
          <mxGeometry relative="1" as="geometry">
            <mxPoint x="2347" y="1219" as="targetPoint" />
            <mxPoint x="2347" y="1243" as="sourcePoint" />
          </mxGeometry>
        </mxCell>
        <mxCell id="jpDQZfpoQcpybGEbhF7t-4" style="edgeStyle=orthogonalEdgeStyle;rounded=0;orthogonalLoop=1;jettySize=auto;html=1;exitX=0.75;exitY=0;exitDx=0;exitDy=0;endArrow=oval;endFill=0;" edge="1" parent="1">
          <mxGeometry relative="1" as="geometry">
            <mxPoint x="2403" y="1213" as="targetPoint" />
            <mxPoint x="2403" y="1237" as="sourcePoint" />
          </mxGeometry>
        </mxCell>
        <mxCell id="jpDQZfpoQcpybGEbhF7t-5" value="oraFineVisita" style="text;html=1;align=center;verticalAlign=middle;resizable=0;points=[];autosize=1;strokeColor=none;fillColor=none;" vertex="1" parent="1">
          <mxGeometry x="2384" y="1182" width="90" height="30" as="geometry" />
        </mxCell>
        <mxCell id="jpDQZfpoQcpybGEbhF7t-12" style="edgeStyle=orthogonalEdgeStyle;rounded=0;orthogonalLoop=1;jettySize=auto;html=1;entryX=0.5;entryY=1;entryDx=0;entryDy=0;endArrow=none;endFill=0;" edge="1" parent="1" source="jpDQZfpoQcpybGEbhF7t-6" target="bLDtoBEc3DzZddHmxZoM-5">
          <mxGeometry relative="1" as="geometry" />
        </mxCell>
        <mxCell id="jpDQZfpoQcpybGEbhF7t-6" value="OrarioApertura" style="rhombus;whiteSpace=wrap;html=1;" vertex="1" parent="1">
          <mxGeometry x="2585.5" y="1541.5" width="100" height="80" as="geometry" />
        </mxCell>
        <mxCell id="jpDQZfpoQcpybGEbhF7t-7" value="oraApertura" style="text;html=1;align=center;verticalAlign=middle;resizable=0;points=[];autosize=1;strokeColor=none;fillColor=none;" vertex="1" parent="1">
          <mxGeometry x="2540" y="1520" width="90" height="30" as="geometry" />
        </mxCell>
        <mxCell id="jpDQZfpoQcpybGEbhF7t-8" style="edgeStyle=orthogonalEdgeStyle;rounded=0;orthogonalLoop=1;jettySize=auto;html=1;exitX=0.75;exitY=0;exitDx=0;exitDy=0;endArrow=oval;endFill=0;" edge="1" parent="1">
          <mxGeometry relative="1" as="geometry">
            <mxPoint x="2594.5" y="1548.5" as="targetPoint" />
            <mxPoint x="2594.5" y="1572.5" as="sourcePoint" />
          </mxGeometry>
        </mxCell>
        <mxCell id="jpDQZfpoQcpybGEbhF7t-9" style="edgeStyle=orthogonalEdgeStyle;rounded=0;orthogonalLoop=1;jettySize=auto;html=1;exitX=0.75;exitY=0;exitDx=0;exitDy=0;endArrow=oval;endFill=0;" edge="1" parent="1">
          <mxGeometry relative="1" as="geometry">
            <mxPoint x="2663.5" y="1539.5" as="targetPoint" />
            <mxPoint x="2663.5" y="1563.5" as="sourcePoint" />
          </mxGeometry>
        </mxCell>
        <mxCell id="jpDQZfpoQcpybGEbhF7t-10" value="oraChiusura" style="text;html=1;align=center;verticalAlign=middle;resizable=0;points=[];autosize=1;strokeColor=none;fillColor=none;" vertex="1" parent="1">
          <mxGeometry x="2644.5" y="1508.5" width="90" height="30" as="geometry" />
        </mxCell>
        <mxCell id="bLDtoBEc3DzZddHmxZoM-11" style="edgeStyle=orthogonalEdgeStyle;rounded=0;orthogonalLoop=1;jettySize=auto;html=1;exitX=1;exitY=0.5;exitDx=0;exitDy=0;entryX=0;entryY=1;entryDx=0;entryDy=0;endArrow=none;endFill=0;" edge="1" parent="1" source="bLDtoBEc3DzZddHmxZoM-9" target="VF1x7tsisbKTvBKclL9h-211">
          <mxGeometry relative="1" as="geometry">
            <mxPoint x="1517" y="1824" as="targetPoint" />
            <mxPoint x="3000" y="671" as="sourcePoint" />
            <Array as="points">
              <mxPoint x="3020" y="669" />
              <mxPoint x="3020" y="2200" />
              <mxPoint x="1517" y="2200" />
            </Array>
          </mxGeometry>
        </mxCell>
        <mxCell id="bLDtoBEc3DzZddHmxZoM-9" value="ricoverato" style="rhombus;whiteSpace=wrap;html=1;rounded=0;" vertex="1" parent="1">
          <mxGeometry x="2920" y="628" width="80" height="80" as="geometry" />
        </mxCell>
        <mxCell id="jpDQZfpoQcpybGEbhF7t-14" value="(1, 1)" style="text;html=1;align=center;verticalAlign=middle;resizable=0;points=[];autosize=1;strokeColor=none;fillColor=none;" vertex="1" parent="1">
          <mxGeometry x="2229" y="1220" width="50" height="30" as="geometry" />
        </mxCell>
        <mxCell id="jpDQZfpoQcpybGEbhF7t-15" value="(1, N)" style="text;html=1;align=center;verticalAlign=middle;resizable=0;points=[];autosize=1;strokeColor=none;fillColor=none;" vertex="1" parent="1">
          <mxGeometry x="2431" y="1250" width="50" height="30" as="geometry" />
        </mxCell>
        <mxCell id="jpDQZfpoQcpybGEbhF7t-16" value="(1, N)" style="text;html=1;align=center;verticalAlign=middle;resizable=0;points=[];autosize=1;strokeColor=none;fillColor=none;" vertex="1" parent="1">
          <mxGeometry x="2509" y="1550" width="50" height="30" as="geometry" />
        </mxCell>
        <mxCell id="bLDtoBEc3DzZddHmxZoM-14" style="edgeStyle=orthogonalEdgeStyle;rounded=0;orthogonalLoop=1;jettySize=auto;html=1;exitX=0;exitY=0.5;exitDx=0;exitDy=0;endArrow=oval;endFill=1;" edge="1" parent="1" target="bLDtoBEc3DzZddHmxZoM-15">
          <mxGeometry relative="1" as="geometry">
            <mxPoint x="2387" y="1414.848484848485" as="targetPoint" />
            <mxPoint x="2427" y="1415" as="sourcePoint" />
            <Array as="points">
              <mxPoint x="2427" y="1410" />
            </Array>
          </mxGeometry>
        </mxCell>
        <mxCell id="jpDQZfpoQcpybGEbhF7t-17" value="(1, 1)" style="text;html=1;align=center;verticalAlign=middle;resizable=0;points=[];autosize=1;strokeColor=none;fillColor=none;" vertex="1" parent="1">
          <mxGeometry x="2635.5" y="1644" width="50" height="30" as="geometry" />
        </mxCell>
        <mxCell id="bLDtoBEc3DzZddHmxZoM-15" value="nomeGiorno" style="text;html=1;align=center;verticalAlign=middle;whiteSpace=wrap;rounded=0;" vertex="1" parent="1">
          <mxGeometry x="2315" y="1395" width="80" height="30" as="geometry" />
        </mxCell>
        <mxCell id="bLDtoBEc3DzZddHmxZoM-18" value="dataPrenotazione" style="text;html=1;align=center;verticalAlign=middle;whiteSpace=wrap;rounded=0;" vertex="1" parent="1">
          <mxGeometry x="1660" y="875" width="90" height="30" as="geometry" />
        </mxCell>
        <mxCell id="bLDtoBEc3DzZddHmxZoM-20" value="urgenzaPrenotazione" style="text;html=1;align=center;verticalAlign=middle;whiteSpace=wrap;rounded=0;" vertex="1" parent="1">
          <mxGeometry x="1670" y="902" width="99" height="30" as="geometry" />
        </mxCell>
        <mxCell id="bLDtoBEc3DzZddHmxZoM-24" style="edgeStyle=orthogonalEdgeStyle;rounded=0;orthogonalLoop=1;jettySize=auto;html=1;exitX=1;exitY=0.5;exitDx=0;exitDy=0;entryX=0;entryY=1;entryDx=0;entryDy=0;endArrow=none;endFill=0;" edge="1" parent="1" source="jpDQZfpoQcpybGEbhF7t-18" target="VF1x7tsisbKTvBKclL9h-205">
          <mxGeometry relative="1" as="geometry">
            <mxPoint x="1270" y="1090" as="targetPoint" />
            <Array as="points">
              <mxPoint x="980" y="1290" />
              <mxPoint x="980" y="1110" />
              <mxPoint x="1887" y="1110" />
            </Array>
          </mxGeometry>
        </mxCell>
        <mxCell id="jpDQZfpoQcpybGEbhF7t-18" value="responsabilità" style="rhombus;whiteSpace=wrap;html=1;" vertex="1" parent="1">
          <mxGeometry x="410" y="1250" width="150" height="80" as="geometry" />
        </mxCell>
        <mxCell id="jpDQZfpoQcpybGEbhF7t-21" style="edgeStyle=orthogonalEdgeStyle;rounded=0;orthogonalLoop=1;jettySize=auto;html=1;entryX=0;entryY=0.5;entryDx=0;entryDy=0;endArrow=none;endFill=0;exitX=0.998;exitY=0.5;exitDx=0;exitDy=0;exitPerimeter=0;" edge="1" parent="1" source="jpDQZfpoQcpybGEbhF7t-19">
          <mxGeometry relative="1" as="geometry">
            <Array as="points">
              <mxPoint x="1887" y="993" />
            </Array>
            <mxPoint x="1190" y="992" as="sourcePoint" />
            <mxPoint x="1887" y="1041" as="targetPoint" />
          </mxGeometry>
        </mxCell>
        <mxCell id="jpDQZfpoQcpybGEbhF7t-19" value="viceResponsabilità" style="rhombus;whiteSpace=wrap;html=1;" vertex="1" parent="1">
          <mxGeometry x="1040" y="953" width="150" height="80" as="geometry" />
        </mxCell>
        <mxCell id="bLDtoBEc3DzZddHmxZoM-25" style="edgeStyle=orthogonalEdgeStyle;rounded=0;orthogonalLoop=1;jettySize=auto;html=1;exitX=0.305;exitY=-0.001;exitDx=0;exitDy=0;entryX=0.538;entryY=0.978;entryDx=0;entryDy=0;entryPerimeter=0;endArrow=oval;endFill=0;exitPerimeter=0;" edge="1" parent="1" source="VF1x7tsisbKTvBKclL9h-205" target="VF1x7tsisbKTvBKclL9h-269">
          <mxGeometry relative="1" as="geometry" />
        </mxCell>
        <mxCell id="jpDQZfpoQcpybGEbhF7t-22" value="(1, 1)" style="text;html=1;align=center;verticalAlign=middle;resizable=0;points=[];autosize=1;strokeColor=none;fillColor=none;" vertex="1" parent="1">
          <mxGeometry x="984.75" y="963" width="50" height="30" as="geometry" />
        </mxCell>
        <mxCell id="jpDQZfpoQcpybGEbhF7t-23" value="(1, N)" style="text;html=1;align=center;verticalAlign=middle;resizable=0;points=[];autosize=1;strokeColor=none;fillColor=none;" vertex="1" parent="1">
          <mxGeometry x="1207" y="963" width="50" height="30" as="geometry" />
        </mxCell>
        <mxCell id="jpDQZfpoQcpybGEbhF7t-24" value="(1, 1)" style="text;html=1;align=center;verticalAlign=middle;resizable=0;points=[];autosize=1;strokeColor=none;fillColor=none;" vertex="1" parent="1">
          <mxGeometry x="440" y="1220" width="50" height="30" as="geometry" />
        </mxCell>
        <mxCell id="jpDQZfpoQcpybGEbhF7t-25" value="(1, 1)" style="text;html=1;align=center;verticalAlign=middle;resizable=0;points=[];autosize=1;strokeColor=none;fillColor=none;" vertex="1" parent="1">
          <mxGeometry x="560" y="1262" width="50" height="30" as="geometry" />
        </mxCell>
        <mxCell id="bLDtoBEc3DzZddHmxZoM-27" value="piano" style="text;html=1;align=center;verticalAlign=middle;whiteSpace=wrap;rounded=0;" vertex="1" parent="1">
          <mxGeometry x="1917.1724137931037" y="925" width="60" height="30" as="geometry" />
        </mxCell>
        <mxCell id="bLDtoBEc3DzZddHmxZoM-30" value="descrizione" style="text;html=1;align=center;verticalAlign=middle;resizable=0;points=[];autosize=1;strokeColor=none;fillColor=none;" vertex="1" parent="1">
          <mxGeometry x="1562" y="1169" width="80" height="30" as="geometry" />
        </mxCell>
        <mxCell id="bLDtoBEc3DzZddHmxZoM-31" value="" style="endArrow=oval;html=1;rounded=0;endFill=1;" edge="1" parent="1">
          <mxGeometry width="50" height="50" relative="1" as="geometry">
            <mxPoint x="1490" y="1250" as="sourcePoint" />
            <mxPoint x="1600" y="1160" as="targetPoint" />
            <Array as="points">
              <mxPoint x="1490" y="1210" />
              <mxPoint x="1550" y="1210" />
              <mxPoint x="1550" y="1160" />
            </Array>
          </mxGeometry>
        </mxCell>
        <mxCell id="rGvSgoze7hu8C_7yOZYc-2" value="" style="edgeStyle=orthogonalEdgeStyle;rounded=0;orthogonalLoop=1;jettySize=auto;html=1;endArrow=none;endFill=0;entryX=0;entryY=0.535;entryDx=0;entryDy=0;entryPerimeter=0;exitX=1;exitY=0.5;exitDx=0;exitDy=0;" edge="1" parent="1" source="VF1x7tsisbKTvBKclL9h-236" target="rGvSgoze7hu8C_7yOZYc-1">
          <mxGeometry relative="1" as="geometry">
            <Array as="points">
              <mxPoint x="593" y="1471" />
            </Array>
            <mxPoint x="466.9806402439027" y="1468.487804878049" as="sourcePoint" />
            <mxPoint x="710" y="1460" as="targetPoint" />
          </mxGeometry>
        </mxCell>
        <mxCell id="rGvSgoze7hu8C_7yOZYc-5" style="edgeStyle=orthogonalEdgeStyle;rounded=0;orthogonalLoop=1;jettySize=auto;html=1;exitX=0.71;exitY=0.011;exitDx=0;exitDy=0;entryX=0.5;entryY=1;entryDx=0;entryDy=0;endArrow=oval;endFill=0;exitPerimeter=0;" edge="1" parent="1" source="rGvSgoze7hu8C_7yOZYc-1" target="VF1x7tsisbKTvBKclL9h-315">
          <mxGeometry relative="1" as="geometry">
            <Array as="points">
              <mxPoint x="805" y="1438" />
            </Array>
          </mxGeometry>
        </mxCell>
        <mxCell id="rGvSgoze7hu8C_7yOZYc-1" value="TurnoPS" style="rounded=0;whiteSpace=wrap;html=1;" vertex="1" parent="1">
          <mxGeometry x="719" y="1437.5" width="120" height="60" as="geometry" />
        </mxCell>
        <mxCell id="jl1h5oeDUfW4r0oFZilz-1" value="Turno_PS" style="rhombus;whiteSpace=wrap;html=1;" vertex="1" parent="1">
          <mxGeometry x="992" y="1650" width="80" height="80" as="geometry" />
        </mxCell>
        <mxCell id="rGvSgoze7hu8C_7yOZYc-4" value="" style="endArrow=oval;html=1;rounded=0;endFill=1;" edge="1" parent="1">
          <mxGeometry width="50" height="50" relative="1" as="geometry">
            <mxPoint x="692" y="1522.5" as="sourcePoint" />
            <mxPoint x="862" y="1522.5" as="targetPoint" />
            <Array as="points">
              <mxPoint x="692" y="1412.5" />
              <mxPoint x="862" y="1412.5" />
            </Array>
          </mxGeometry>
        </mxCell>
        <mxCell id="jl1h5oeDUfW4r0oFZilz-2" value="(0, 1)" style="text;html=1;align=center;verticalAlign=middle;resizable=0;points=[];autosize=1;strokeColor=none;fillColor=none;" vertex="1" parent="1">
          <mxGeometry x="1032.5" y="1753" width="50" height="30" as="geometry" />
        </mxCell>
        <mxCell id="jl1h5oeDUfW4r0oFZilz-3" value="(0, N)" style="text;html=1;align=center;verticalAlign=middle;resizable=0;points=[];autosize=1;strokeColor=none;fillColor=none;" vertex="1" parent="1">
          <mxGeometry x="1032.5" y="1596.64" width="50" height="30" as="geometry" />
        </mxCell>
        <mxCell id="rGvSgoze7hu8C_7yOZYc-6" style="edgeStyle=orthogonalEdgeStyle;rounded=0;orthogonalLoop=1;jettySize=auto;html=1;exitX=0.25;exitY=0;exitDx=0;exitDy=0;entryX=0.667;entryY=1.013;entryDx=0;entryDy=0;entryPerimeter=0;endArrow=oval;endFill=0;" edge="1" parent="1" source="VF1x7tsisbKTvBKclL9h-189" target="VF1x7tsisbKTvBKclL9h-249">
          <mxGeometry relative="1" as="geometry" />
        </mxCell>
        <mxCell id="jl1h5oeDUfW4r0oFZilz-6" value="" style="endArrow=none;html=1;rounded=0;endFill=0;startArrow=oval;startFill=1;" edge="1" parent="1">
          <mxGeometry width="50" height="50" relative="1" as="geometry">
            <mxPoint x="1996" y="710" as="sourcePoint" />
            <mxPoint x="1876" y="710" as="targetPoint" />
          </mxGeometry>
        </mxCell>
        <mxCell id="u38QQ2XhlgdJdXgunirn-2" value="costoPrivato" style="text;html=1;align=center;verticalAlign=middle;resizable=0;points=[];autosize=1;strokeColor=none;fillColor=none;" vertex="1" parent="1">
          <mxGeometry x="1660" y="1220" width="90" height="30" as="geometry" />
        </mxCell>
        <mxCell id="u38QQ2XhlgdJdXgunirn-4" value="costoAssistenza" style="text;html=1;align=center;verticalAlign=middle;resizable=0;points=[];autosize=1;strokeColor=none;fillColor=none;" vertex="1" parent="1">
          <mxGeometry x="1664.5" y="1250" width="110" height="30" as="geometry" />
        </mxCell>
        <mxCell id="u38QQ2XhlgdJdXgunirn-6" value="RegimePrivato" style="text;html=1;align=center;verticalAlign=middle;whiteSpace=wrap;rounded=0;" vertex="1" parent="1">
          <mxGeometry x="1417" y="877" width="60" height="30" as="geometry" />
        </mxCell>
      </root>
    </mxGraphModel>
  </diagram>
</mxfile>
